<?xml version="1.0" standalone="no"?>
<!DOCTYPE svg PUBLIC "-//W3C//DTD SVG 1.1//EN" "http://www.w3.org/Graphics/SVG/1.1/DTD/svg11.dtd" >
<svg xmlns="http://www.w3.org/2000/svg">
<metadata>Generated by IcoMoon</metadata>
<defs>
<font id="icomoon" horiz-adv-x="1024">
<font-face units-per-em="1024" ascent="960" descent="-64" />
<missing-glyph horiz-adv-x="1024" />
<glyph unicode="&#x20;" horiz-adv-x="512" d="" />
<glyph unicode="&#xe900;" glyph-name="Running" d="M731.614 228.386c-0.678-0.653-1.408-1.246-2.185-1.775h40.96c4.527 0 8.866-1.796 12.070-5.001 3.2-3.2 4.996-7.539 4.996-12.066s-1.796-8.866-4.996-12.066c-3.204-3.204-7.543-5.001-12.070-5.001h-81.92c-4.527 0-8.866 1.796-12.066 5.001-3.204 3.2-5.001 7.539-5.001 12.066v81.92c0 4.527 1.796 8.866 5.001 12.066 3.2 3.204 7.539 5.001 12.066 5.001s8.866-1.796 12.066-5.001c3.204-3.2 5.001-7.539 5.001-12.066v-40.96l1.775 1.911c38.686 38.652 65.037 87.906 75.729 141.534 10.688 53.628 5.235 109.222-15.671 159.751-20.902 50.529-56.324 93.725-101.781 124.123-45.453 30.398-98.901 46.635-153.587 46.656-4.527 0-8.866 1.798-12.066 4.999-3.204 3.2-5.001 7.541-5.001 12.068s1.796 8.867 5.001 12.068c3.2 3.201 7.539 4.999 12.066 4.999 61.427-0.009 121.472-18.231 172.544-52.362s90.876-82.639 114.381-139.391c23.509-56.751 29.658-119.197 17.677-179.447-11.981-60.245-41.557-115.588-84.988-159.027zM201.387 448c0-82.381 32.725-161.387 90.977-219.635 58.251-58.253 137.256-90.978 219.636-90.978 4.527 0 8.866 1.796 12.066 5.001 3.204 3.2 5.001 7.539 5.001 12.066s-1.796 8.866-5.001 12.066c-3.2 3.204-7.539 5.001-12.066 5.001-54.686-0.004-108.147 16.205-153.619 46.588-45.472 30.379-80.914 73.562-101.843 124.083-20.929 50.526-26.404 106.121-15.733 159.757s37.007 102.901 75.68 141.568c0.546 0.546 1.161 1.229 1.775 1.98v-40.96c0-4.527 1.798-8.867 4.998-12.068s7.542-4.999 12.068-4.999c4.526 0 8.867 1.798 12.068 4.999s4.999 7.541 4.999 12.068v81.92c0 4.527-1.798 8.867-4.999 12.068s-7.542 4.999-12.068 4.999h-81.92c-4.526 0-8.867-1.798-12.068-4.999s-4.999-7.541-4.999-12.068c0-4.527 1.798-8.867 4.999-12.068s7.542-4.999 12.068-4.999h40.96c-0.737-0.553-1.443-1.145-2.116-1.775-28.911-28.782-51.827-63.011-67.424-100.708-15.596-37.694-23.563-78.112-23.439-118.906z" />
<glyph unicode="&#xe901;" glyph-name="Success" d="M648.913 545.56c10.415-10.414 10.415-27.297 0-37.712l-157.406-157.41c-3.904-3.904-8.721-6.345-13.764-7.322-3.772-0.73-7.676-0.64-11.418 0.269-4.591 1.118-8.947 3.469-12.531 7.053l-78.705 78.707c-10.414 10.411-10.414 27.298 0 37.709 10.414 10.415 27.299 10.415 37.713 0l59.847-59.849 138.556 138.554c10.411 10.414 27.298 10.414 37.709 0zM170.517 448c0 188.596 152.887 341.484 341.483 341.484s341.483-152.887 341.483-341.484c0-188.595-152.887-341.483-341.483-341.483s-341.483 152.887-341.483 341.483zM512 736.15c-159.141 0-288.15-129.009-288.15-288.15s129.009-288.149 288.15-288.149c159.142 0 288.149 129.007 288.149 288.149 0 159.141-129.007 288.15-288.149 288.15z" />
<glyph unicode="&#xe902;" glyph-name="Warning" d="M481.306 390.997h61.44v248.832h-61.44v-248.832zM482.842 341.333c-7.851-7.851-11.776-17.237-11.776-28.16 0-5.461 1.024-10.581 3.072-15.36 2.389-4.779 5.461-8.875 9.216-12.288s8.021-6.144 12.8-8.192c5.12-2.048 10.411-3.072 15.872-3.072 11.264 0 20.821 3.925 28.672 11.776 8.192 7.851 12.288 17.237 12.288 28.16s-4.096 20.139-12.288 27.648c-8.192 7.509-17.749 11.264-28.672 11.264-11.264 0-20.992-3.925-29.184-11.776zM512 816c-203.241 0-368-164.759-368-368 0-203.243 164.759-368 368-368 203.243 0 368 164.757 368 368 0 203.241-164.757 368-368 368zM197.333 448c0 173.786 140.881 314.667 314.667 314.667s314.667-140.881 314.667-314.667c0-173.786-140.881-314.667-314.667-314.667s-314.667 140.881-314.667 314.667z" />
<glyph unicode="&#xe903;" glyph-name="Help" d="M486.771 412.501v-28.16h61.44v19.456c0 6.485 0.512 11.947 1.536 16.384 1.024 4.779 2.56 8.875 4.608 12.288 2.389 3.755 5.291 7.339 8.704 10.752s7.509 7.339 12.288 11.776c7.509 7.168 14.507 13.995 20.992 20.48 6.827 6.485 12.8 13.312 17.92 20.48s9.216 15.019 12.288 23.552c3.072 8.533 4.608 18.432 4.608 29.696 0 16.043-2.731 30.208-8.192 42.496-5.461 12.629-13.141 23.040-23.040 31.232-9.557 8.533-20.992 15.019-34.304 19.456-12.971 4.437-27.136 6.656-42.496 6.656-16.384 0-31.403-2.389-45.056-7.168-13.653-4.437-25.771-11.093-36.352-19.968-10.24-8.875-18.604-19.797-25.089-32.768-6.485-12.629-10.752-27.136-12.8-43.52l65.537-5.12c1.365 13.995 6.656 25.771 15.872 35.328 9.216 9.899 20.992 14.848 35.328 14.848 13.312 0 24.235-4.267 32.768-12.8 8.875-8.192 13.312-18.944 13.312-32.256 0-13.653-4.267-24.747-12.8-33.28l-39.424-39.936c-5.12-5.461-9.557-10.24-13.312-14.336-3.413-3.755-6.315-7.851-8.704-12.288-2.048-4.096-3.584-8.875-4.608-14.336-0.683-5.12-1.024-11.435-1.024-18.944zM488.307 341.333c-7.851-7.851-11.776-17.237-11.776-28.16 0-5.461 1.024-10.581 3.072-15.36 2.389-4.779 5.461-8.875 9.216-12.288s8.021-6.144 12.8-8.192c5.12-2.048 10.411-3.072 15.872-3.072 11.264 0 20.821 3.925 28.672 11.776 8.192 7.851 12.288 17.237 12.288 28.16s-4.096 20.139-12.288 27.648c-8.192 7.509-17.749 11.264-28.672 11.264-11.264 0-20.992-3.925-29.184-11.776zM512 816c-203.241 0-368-164.759-368-368 0-203.243 164.759-368 368-368 203.243 0 368 164.757 368 368 0 203.241-164.757 368-368 368zM197.333 448c0 173.786 140.881 314.667 314.667 314.667s314.667-140.881 314.667-314.667c0-173.786-140.881-314.667-314.667-314.667s-314.667 140.881-314.667 314.667z" />
<glyph unicode="&#xe904;" glyph-name="Error" d="M674.987 610.856c10.415-10.414 10.415-27.298 0-37.712l-125.21-125.208 125.21-125.21c10.415-10.415 10.415-27.298 0-37.713s-27.298-10.415-37.713 0l-125.21 125.21-125.208-125.21c-10.414-10.415-27.298-10.415-37.712 0s-10.414 27.298 0 37.713l125.211 125.21-125.211 125.208c-10.414 10.414-10.414 27.298 0 37.712s27.298 10.414 37.712 0l125.208-125.211 125.21 125.211c10.415 10.414 27.298 10.414 37.713 0zM512 816c-203.241 0-368-164.759-368-368 0-203.243 164.759-368 368-368 203.243 0 368 164.757 368 368 0 203.241-164.757 368-368 368zM197.333 448c0 173.786 140.881 314.667 314.667 314.667s314.667-140.881 314.667-314.667c0-173.786-140.881-314.667-314.667-314.667s-314.667 140.881-314.667 314.667z" />
<glyph unicode="&#xe905;" glyph-name="Add" d="M509.41 602.088c14.729 0 26.667-11.939 26.667-26.667v-98.164h98.163c14.729 0 26.667-11.938 26.667-26.667s-11.938-26.667-26.667-26.667h-98.163v-98.163c0-14.729-11.938-26.667-26.667-26.667s-26.667 11.938-26.667 26.667v98.163h-98.164c-14.728 0-26.667 11.938-26.667 26.667s11.939 26.667 26.667 26.667h98.164v98.164c0 14.728 11.938 26.667 26.667 26.667zM170.667 450.59c0 187.083 151.66 338.743 338.743 338.743 187.081 0 338.743-151.66 338.743-338.743 0-187.081-151.663-338.743-338.743-338.743-187.083 0-338.743 151.663-338.743 338.743zM509.41 736c-157.628 0-285.41-127.782-285.41-285.41s127.782-285.41 285.41-285.41c157.628 0 285.41 127.782 285.41 285.41s-127.782 285.41-285.41 285.41z" />
<glyph unicode="&#xe906;" glyph-name="Arrow-Down" d="M771.516 410.927c12.497 12.497 12.497 32.759 0 45.257s-32.759 12.497-45.257 0l-168.064-168.068-1.306 399.989c-0.060 17.673-14.434 31.953-32.107 31.895s-31.953-14.431-31.893-32.104l1.301-399.277-167.564 167.565c-12.497 12.497-32.758 12.497-45.255 0s-12.497-32.759 0-45.257l222.444-222.443c6.161-6.161 14.208-9.284 22.281-9.37 0.333-0.004 0.666-0.004 0.998 0.004 4.122 0.081 8.051 0.943 11.648 2.441s6.976 3.678 9.937 6.541z" />
<glyph unicode="&#xe907;" glyph-name="Arrow-Left" d="M501.594 204.484c12.497-12.497 32.759-12.497 45.257 0s12.497 32.759 0 45.257l-168.068 168.064 399.987 1.306c17.677 0.060 31.953 14.434 31.898 32.107-0.060 17.673-14.43 31.953-32.102 31.893l-399.278-1.301 167.564 167.564c12.497 12.497 12.497 32.758 0 45.255s-32.759 12.497-45.257 0l-222.443-222.444c-6.16-6.161-9.284-14.208-9.371-22.281-0.003-0.333-0.002-0.666 0.005-0.998 0.082-4.122 0.943-8.051 2.442-11.648 1.495-3.597 3.676-6.976 6.542-9.937z" />
<glyph unicode="&#xe908;" glyph-name="Arrow-Right" d="M565.073 694.627c-12.497 12.497-32.759 12.497-45.257 0s-12.497-32.758 0-45.255l168.068-168.067-399.989-1.306c-17.673-0.060-31.953-14.43-31.895-32.102 0.058-17.677 14.432-31.953 32.105-31.898l399.277 1.301-167.565-167.561c-12.497-12.497-12.497-32.759 0-45.257s32.759-12.497 45.257 0l222.443 222.443c6.161 6.161 9.284 14.208 9.37 22.281 0.004 0.333 0.004 0.666-0.004 0.998-0.081 4.122-0.943 8.051-2.441 11.648s-3.678 6.976-6.541 9.941z" />
<glyph unicode="&#xe909;" glyph-name="Arrow-Up" d="M281.373 488.183c-12.497-12.497-12.497-32.759 0-45.257s32.758-12.497 45.255 0l168.067 168.069 1.306-399.988c0.060-17.673 14.43-31.953 32.102-31.898 17.677 0.060 31.953 14.434 31.898 32.107l-1.301 399.275 167.561-167.565c12.497-12.497 32.759-12.497 45.257 0s12.497 32.759 0 45.257l-222.443 222.444c-6.161 6.16-14.208 9.284-22.281 9.371-0.333 0.003-0.666 0.002-0.998-0.005-4.122-0.082-8.051-0.943-11.648-2.442-3.597-1.495-6.976-3.676-9.941-6.542z" />
<glyph unicode="&#xe90a;" glyph-name="Chev-Down" d="M724.668 561.043c10.415-10.414 10.415-27.299 0-37.711l-184.96-184.96c-10.411-10.415-27.298-10.415-37.709 0l-184.962 184.96c-10.414 10.412-10.414 27.296 0 37.711s27.298 10.414 37.712 0l166.104-166.103 166.106 166.103c10.411 10.414 27.298 10.414 37.709 0z" />
<glyph unicode="&#xe90b;" glyph-name="Chev-Left" d="M632.192 245.892c-10.415-10.415-27.302-10.415-37.713 0l-184.961 184.96c-10.414 10.411-10.414 27.298 0 37.709l184.961 184.962c10.411 10.414 27.298 10.414 37.713 0 10.411-10.414 10.411-27.298 0-37.712l-166.106-166.104 166.106-166.106c10.411-10.411 10.411-27.298 0-37.709z" />
<glyph unicode="&#xe90c;" glyph-name="Chev-Right" d="M409.517 653.523c10.414 10.414 27.3 10.414 37.711 0l184.96-184.962c10.415-10.411 10.415-27.298 0-37.709l-184.96-184.96c-10.411-10.415-27.297-10.415-37.711 0-10.414 10.411-10.414 27.298 0 37.709l166.103 166.106-166.103 166.104c-10.414 10.414-10.414 27.298 0 37.712z" />
<glyph unicode="&#xe90d;" glyph-name="Chevs-Down" d="M728.294 629.997c10.415 10.414 10.415 27.299 0 37.713-10.411 10.414-27.298 10.414-37.709 0l-166.106-166.103-166.104 166.103c-10.414 10.414-27.299 10.414-37.713 0s-10.414-27.299 0-37.713l184.962-184.958c10.411-10.415 27.298-10.415 37.709 0l184.96 184.958zM728.294 416.666c10.415 10.411 10.415 27.298 0 37.709-10.411 10.415-27.298 10.415-37.709 0l-166.106-166.101-166.104 166.101c-10.414 10.415-27.299 10.415-37.713 0-10.414-10.411-10.414-27.298 0-37.709l184.962-184.96c10.411-10.415 27.298-10.415 37.709 0l184.96 184.96z" />
<glyph unicode="&#xe90e;" glyph-name="Chevs-Left" d="M704.772 245.892c10.411-10.415 27.298-10.415 37.709 0 10.415 10.411 10.415 27.298 0 37.709l-166.101 166.106 166.101 166.104c10.415 10.414 10.415 27.298 0 37.712-10.411 10.414-27.298 10.414-37.709 0l-184.96-184.962c-10.415-10.411-10.415-27.298 0-37.709l184.96-184.96zM491.439 245.892c10.411-10.415 27.298-10.415 37.709 0 10.415 10.411 10.415 27.298 0 37.709l-166.102 166.106 166.102 166.104c10.415 10.414 10.415 27.298 0 37.712-10.411 10.414-27.298 10.414-37.709 0l-184.962-184.962c-10.414-10.411-10.414-27.298 0-37.709l184.962-184.96z" />
<glyph unicode="&#xe90f;" glyph-name="Chevs-Right" d="M344.189 653.523c-10.414 10.414-27.298 10.414-37.712 0s-10.414-27.298 0-37.712l166.103-166.104-166.103-166.106c-10.414-10.411-10.414-27.298 0-37.709 10.414-10.415 27.298-10.415 37.712 0l184.958 184.96c10.415 10.411 10.415 27.298 0 37.709l-184.958 184.962zM557.521 653.523c-10.411 10.414-27.298 10.414-37.709 0-10.415-10.414-10.415-27.298 0-37.712l166.101-166.104-166.101-166.106c-10.415-10.411-10.415-27.298 0-37.709 10.411-10.415 27.298-10.415 37.709 0l184.96 184.96c10.415 10.411 10.415 27.298 0 37.709l-184.96 184.962z" />
<glyph unicode="&#xe910;" glyph-name="Chevs-Up" d="M320.664 269.414c-10.414-10.411-10.414-27.298 0-37.709 10.414-10.415 27.299-10.415 37.713 0l166.103 166.101 166.106-166.101c10.411-10.415 27.298-10.415 37.709 0 10.415 10.411 10.415 27.298 0 37.709l-184.96 184.96c-10.411 10.415-27.298 10.415-37.709 0l-184.962-184.96zM320.664 482.748c-10.414-10.411-10.414-27.298 0-37.709 10.414-10.415 27.299-10.415 37.713 0l166.103 166.102 166.106-166.102c10.411-10.415 27.298-10.415 37.709 0 10.415 10.411 10.415 27.298 0 37.709l-184.96 184.962c-10.411 10.414-27.298 10.414-37.709 0l-184.962-184.962z" />
<glyph unicode="&#xe911;" glyph-name="Chev-Up" d="M317.037 338.372c-10.414 10.411-10.414 27.298 0 37.709l184.962 184.962c10.411 10.414 27.298 10.414 37.709 0l184.96-184.962c10.415-10.411 10.415-27.298 0-37.709-10.411-10.415-27.298-10.415-37.709 0l-166.106 166.101-166.104-166.101c-10.414-10.415-27.299-10.415-37.712 0z" />
<glyph unicode="&#xe912;" glyph-name="Close" d="M744.333 658.477c10.415 10.414 10.415 27.299 0 37.712s-27.298 10.414-37.713 0l-202.547-202.548-202.55 202.548c-10.414 10.414-27.298 10.414-37.712 0s-10.414-27.298 0-37.712l202.549-202.549-202.549-202.547c-10.414-10.415-10.414-27.298 0-37.713s27.298-10.415 37.712 0l202.55 202.547 202.547-202.547c10.415-10.415 27.298-10.415 37.713 0s10.415 27.298 0 37.713l-202.547 202.547 202.547 202.549z" />
<glyph unicode="&#xe913;" glyph-name="Copy" d="M352.62 634.667v-0.31h-112.62c-61.856 0-112-50.144-112-112.002v-278.571c0-61.858 50.144-112 112-112h278.571c61.858 0 112 50.142 112 112v0.311h112.623c61.854 0 112 50.142 112 112v278.571c0 61.856-50.146 112-112 112h-278.575c-61.855 0-111.999-50.144-111.999-112zM405.953 634.357v0.31c0 32.401 26.265 58.667 58.666 58.667h278.575c32.401 0 58.667-26.266 58.667-58.667v-278.571c0-32.401-26.266-58.667-58.667-58.667h-112.623v224.926c0 61.857-50.142 112.002-112 112.002h-112.618zM181.333 522.355c0 32.402 26.266 58.668 58.667 58.668h278.571c32.401 0 58.667-26.266 58.667-58.668v-278.571c0-32.401-26.266-58.667-58.667-58.667h-278.571c-32.401 0-58.667 26.266-58.667 58.667v278.571z" />
<glyph unicode="&#xe914;" glyph-name="Cursor" d="M394.667 757.333c0 17.673 14.327 32 32 32h170.667c17.673 0 32-14.327 32-32s-14.327-32-32-32h-53.333v-533.333h53.333c17.673 0 32-14.327 32-32s-14.327-32-32-32h-170.667c-17.673 0-32 14.327-32 32s14.327 32 32 32h53.333v533.333h-53.333c-17.673 0-32 14.327-32 32z" />
<glyph unicode="&#xe915;" glyph-name="Delete" d="M452.595 515.998c14.724 0 26.667-11.938 26.667-26.667v-182.221c0-14.729-11.942-26.667-26.667-26.667-14.729 0-26.668 11.938-26.668 26.667v182.221c0 14.729 11.94 26.667 26.668 26.667zM600.742 489.331c0 14.729-11.938 26.667-26.667 26.667s-26.667-11.938-26.667-26.667v-182.221c0-14.729 11.938-26.667 26.667-26.667s26.667 11.938 26.667 26.667v182.221zM661.483 701.926v-34.074h125.184c14.729 0 26.667-11.939 26.667-26.667s-11.938-26.667-26.667-26.667h-34.074v-398.518c0-23.185-9.207-45.414-25.6-61.807s-38.626-25.6-61.807-25.6h-303.704c-23.182 0-45.414 9.207-61.807 25.6s-25.601 38.622-25.601 61.807v398.518h-34.074c-14.728 0-26.667 11.939-26.667 26.667s11.939 26.667 26.667 26.667h125.185v34.074c0 23.182 9.209 45.414 25.601 61.806s38.624 25.601 61.804 25.601h121.485c23.181 0 45.414-9.209 61.807-25.601s25.6-38.624 25.6-61.806zM428.497 726.020c6.391 6.39 15.057 9.98 24.094 9.98h121.485c9.037 0 17.702-3.59 24.094-9.98s9.98-15.057 9.98-24.094v-34.074h-189.631v34.074c0 9.037 3.59 17.704 9.978 24.094zM327.407 614.518v-398.518c0-9.037 3.59-17.707 9.98-24.094 6.39-6.391 15.057-9.98 24.094-9.98h303.704c9.037 0 17.702 3.588 24.094 9.98 6.391 6.387 9.98 15.057 9.98 24.094v398.518h-371.852z" />
<glyph unicode="&#xe916;" glyph-name="Disiked" d="M801.818 789.333h-37.431v-486.647h37.431c19.857 0 38.899 7.889 52.941 21.931 14.042 14.037 21.931 33.084 21.931 52.937v336.911c0 19.857-7.889 38.9-21.931 52.94s-33.084 21.929-52.941 21.929zM202.869 302.686h262.040l-42.001-126.080c-3.748-11.251-4.769-23.232-2.979-34.957s6.34-22.857 13.274-32.478c6.933-9.621 16.055-17.455 26.611-22.861s22.246-8.226 34.108-8.23h8.422l187.17 203.567v507.686h-411.777l-147.379-323.772-2.358-10.965v-77.043c0-19.853 7.888-38.899 21.929-52.937 14.041-14.042 33.084-21.931 52.94-21.931z" />
<glyph unicode="&#xe917;" glyph-name="Dislike" d="M801.818 789.333h-498.138c-15.232-0.051-30.089-4.723-42.609-13.399s-22.11-20.947-27.506-35.191l-103.206-275.182c-1.567-4.203-2.366-8.653-2.359-13.137v-74.871c0-41.289 33.579-74.867 74.869-74.867h210.082l-42.001-126.042c-3.744-11.255-4.768-23.236-2.985-34.961s6.321-22.861 13.242-32.495c14.075-19.465 36.761-31.108 60.795-31.108h60.343c11.119 0 21.636 4.941 28.787 13.478l175.94 211.127h94.746c41.293 0 74.871 33.579 74.871 74.867v336.911c0 41.29-33.579 74.869-74.871 74.869zM484.787 152.947h-42.863l58.475 175.343c1.873 5.628 2.381 11.614 1.489 17.476-0.896 5.858-3.166 11.426-6.635 16.235-3.465 4.809-8.021 8.73-13.299 11.435-5.274 2.701-11.115 4.113-17.045 4.117h-262.040v68.096l100.811 268.815h348.404v-360.792l-167.296-200.725zM726.95 377.553v336.911h74.867l0.038-336.911h-74.906z" />
<glyph unicode="&#xe918;" glyph-name="Download" d="M538.667 789.333c0 14.728-11.938 26.667-26.667 26.667s-26.667-11.939-26.667-26.667v-368.384l-119.047 119.049c-10.414 10.414-27.299 10.414-37.713 0-10.414-10.416-10.414-27.299 0-37.714l167.619-167.616c10.415-10.415 27.298-10.415 37.713 0l167.62 167.616c10.411 10.415 10.411 27.298 0 37.714-10.415 10.414-27.298 10.414-37.713 0l-125.146-125.146v374.481zM213.333 419.81c14.728 0 26.667-11.938 26.667-26.667v-134.097c0-10.709 4.254-20.979 11.827-28.553s17.844-11.827 28.554-11.827h469.332c10.709 0 20.983 4.254 28.557 11.827 7.569 7.573 11.827 17.843 11.827 28.553v134.097c0 14.729 11.938 26.667 26.667 26.667 14.724 0 26.667-11.938 26.667-26.667v-134.097c0-24.853-9.877-48.691-27.452-66.266s-41.408-27.447-66.266-27.447h-469.332c-24.855 0-48.691 9.873-66.266 27.447s-27.448 41.412-27.448 66.266v134.097c0 14.729 11.939 26.667 26.667 26.667z" />
<glyph unicode="&#xe919;" glyph-name="Edit" d="M808.508 676.107l-105.954 105.955c-9.519 9.696-25.207 9.696-34.731 0l-297.235-297.061c-3.702-3.703-6.17-8.64-7.052-13.926l-17.277-121.293c-1.058-7.582 1.41-15.339 6.875-20.804 4.584-4.762 11.107-7.403 17.63-7.403 1.058 0 1.939 0 2.997 0.175l123.233 15.339c5.466 0.704 10.577 3.174 14.455 7.053l297.058 297.059c9.698 9.696 9.698 25.21 0 34.907zM482.714 385.041l-82.86-10.227 11.636 81.097 273.789 273.79 71.049-71.048-273.613-273.612zM748.919 202.398c0-25.212-19.921-46.37-45.308-46.37h-438.45c-25.21 0-45.132 21.158-45.132 46.37v483.052c0 25.21 19.745 45.132 45.132 45.132h236.944v49.539h-236.944c-52.536 0-94.495-41.958-94.495-94.495v-483.054c0-52.535 41.959-95.731 94.495-95.731l438.45-0.175c52.54 0 94.673 43.371 94.673 95.731v292.122h-49.365v-292.122z" />
<glyph unicode="&#xe91a;" glyph-name="Email" d="M200.891 576.373c-0.003-0.233-0.003-0.467 0-0.7v-298.34c0-46.016 37.539-83.554 83.556-83.554h455.112c46.016 0 83.554 37.538 83.554 83.554v298.34c0.004 0.233 0.004 0.466 0 0.699v42.293c0 46.017-37.538 83.556-83.554 83.556h-455.112c-46.017 0-83.556-37.539-83.556-83.556v-42.293zM254.224 618.666c0 16.561 13.661 30.223 30.223 30.223h455.112c16.559 0 30.221-13.661 30.221-30.223v-28.782l-257.779-180.446-257.776 180.446v28.782zM769.779 524.783v-247.45c0-16.563-13.662-30.221-30.221-30.221h-455.112c-16.561 0-30.223 13.658-30.223 30.221v247.45l242.484-169.741c9.182-6.426 21.406-6.426 30.588 0l242.483 169.741z" />
<glyph unicode="&#xe91b;" glyph-name="File" d="M372.341 440.060c-17.673 0-32-14.323-32-32 0-17.673 14.327-32 32-32h254.014c17.673 0 32 14.327 32 32 0 17.677-14.327 32-32 32h-254.014zM340.341 281.054c0 17.673 14.327 32 32 32h254.014c17.673 0 32-14.327 32-32s-14.327-32-32-32h-254.014c-17.673 0-32 14.327-32 32zM372.341 567.070c-17.673 0-32-14.327-32-32s14.327-32 32-32h63.503c17.673 0 32 14.327 32 32s-14.327 32-32 32h-63.503zM241.306 761.361c17.911 17.91 42.202 27.972 67.532 27.972h254.017c8.486 0 16.623-3.372 22.626-9.373l190.511-190.512c6.003-6.001 9.374-14.14 9.374-22.627v-381.021c0-25.331-10.065-49.621-27.972-67.533-17.911-17.911-42.202-27.972-67.533-27.972h-381.023c-25.329 0-49.621 10.061-67.532 27.972s-27.972 42.202-27.972 67.533v508.029c0 25.329 10.062 49.621 27.972 67.532zM308.837 725.333c-8.355 0-16.368-3.319-22.277-9.227s-9.227-13.921-9.227-22.277v-508.029c0-8.358 3.319-16.371 9.227-22.281 5.908-5.905 13.921-9.225 22.277-9.225h381.023c8.354 0 16.367 3.319 22.276 9.225 5.909 5.909 9.229 13.922 9.229 22.281v338.355h-166.699c-17.673 0-32 14.326-32 31.999v169.178h-213.83zM586.667 688.265l100.109-100.11h-100.109v100.11z" />
<glyph unicode="&#xe91c;" glyph-name="Like" d="M801.818 564.727h-210.082l42.039 126.042c7.565 22.76 3.746 47.991-10.295 67.457-14.037 19.466-36.796 31.108-60.791 31.108h-60.343c-11.119 0-21.636-4.941-28.787-13.476l-175.942-211.13h-94.746c-41.29 0-74.869-33.578-74.869-74.867v-336.913c0-41.289 33.579-74.867 74.869-74.867h498.14c15.232 0.051 30.089 4.723 42.607 13.397 12.518 8.678 22.11 20.949 27.507 35.191l103.206 275.183c1.566 4.203 2.364 8.653 2.359 13.137v74.871c0 41.289-33.579 74.867-74.871 74.867zM202.869 489.86h74.868v-336.913h-74.868v336.913zM801.818 421.764l-100.809-268.817h-348.403v360.794l167.257 200.724h42.901l-58.475-175.305c-1.899-5.627-2.428-11.625-1.545-17.5 0.883-5.871 3.153-11.447 6.622-16.269 3.469-4.817 8.038-8.742 13.329-11.443 5.286-2.701 11.145-4.105 17.084-4.087h262.037v-68.096z" />
<glyph unicode="&#xe91d;" glyph-name="Liked" d="M202.88 78.080h37.44v486.647h-37.44c-19.86 0-38.906-7.888-52.948-21.929-14.043-14.039-21.932-33.085-21.932-52.938v-336.913c0-19.853 7.889-38.899 21.932-52.937 14.042-14.042 33.088-21.931 52.948-21.931zM801.92 564.727h-262.080l42.010 126.079c3.746 11.252 4.766 23.234 2.978 34.958-1.792 11.724-6.34 22.855-13.278 32.477-6.933 9.621-16.055 17.458-26.615 22.863-10.556 5.406-22.251 8.227-34.112 8.23h-8.422l-187.2-203.568v-507.685h411.84l146.466 321.788 3.294 15.121v74.871c0 19.853-7.889 38.899-21.931 52.938-14.046 14.041-33.088 21.929-52.949 21.929z" />
<glyph unicode="&#xe91e;" glyph-name="Loading" d="M512 106.667c-46.067 0-90.8 8.998-132.867 26.799-40.667 17.199-77.134 41.869-108.467 73.203-31.334 31.33-56 67.797-73.2 108.463-17.8 42.069-26.8 86.801-26.8 132.868 0 13.265 10.733 24 24 24s24-10.735 24-24c0-39.599 7.733-77.999 23.066-114.202 14.8-34.931 35.933-66.33 62.867-93.265s58.333-48.132 93.267-62.865c36.134-15.27 74.534-23.002 114.133-23.002s77.999 7.731 114.202 23.066c34.931 14.801 66.33 35.934 93.265 62.869 26.931 26.931 48.132 58.33 62.865 93.265 15.266 36.134 23.002 74.534 23.002 114.133s-7.735 77.999-23.066 114.2c-14.75 34.85-36.1 66.519-62.869 93.267-26.718 26.805-58.394 48.158-93.265 62.867-36.134 15.267-74.534 23-114.133 23-13.265 0-24 10.733-24 24s10.735 24 24 24c46.067 0 90.799-9 132.868-26.8 40.666-17.2 77.133-41.867 108.463-73.2 31.334-31.333 55.936-67.867 73.135-108.467 17.801-42.067 26.799-86.799 26.799-132.867s-8.998-90.799-26.799-132.868c-17.135-40.666-41.801-77.133-73.135-108.463-31.33-31.334-67.866-55.936-108.463-73.135-42.069-17.869-86.801-26.867-132.868-26.867zM379.133 133.466v0zM197.466 315.132v0zM241.733 333.798v0zM397.867 177.668l4.151 9.826h-0.006l-4.145-9.826zM626.202 177.732v0zM782.332 333.867v0zM782.268 562.2v0zM719.398 655.467l-7.552-7.53 0.013-0.015 7.539 7.546zM626.133 718.333l-4.151-9.826 0.004-0.003 4.147 9.828zM644.868 762.533l-4.16-9.823 0.004-0.001 4.156 9.824zM826.466 580.867v0zM826.466 315.132l-9.822 4.16-0.009-0.017 9.83-4.143zM644.868 133.534l-4.164 9.822-0.009-0.004 4.173-9.818zM512 117.333c-44.655 0-87.975 8.721-128.71 25.958l-8.313-19.648c43.398-18.364 89.548-27.644 137.023-27.644v21.333zM383.288 143.292c-39.386 16.657-74.705 40.542-105.079 70.916l-15.085-15.083c32.293-32.294 69.906-57.741 111.854-75.482l8.31 19.648zM278.209 214.208c-30.374 30.374-54.26 65.694-70.918 105.079l-19.648-8.307c17.742-41.95 43.188-79.565 75.482-111.855l15.085 15.083zM207.29 319.292c-17.236 40.734-25.957 84.053-25.957 128.708h-21.333c0-47.475 9.28-93.623 27.643-137.024l19.647 8.316zM181.333 448c0 7.377 5.958 13.333 13.333 13.333v21.333c-19.158 0-34.667-15.509-34.667-34.667h21.333zM194.667 461.333c7.376 0 13.333-5.956 13.333-13.333h21.333c0 19.157-15.509 34.667-34.667 34.667v-21.333zM208 448c0-41.011 8.014-80.828 23.911-118.362l19.644 8.32c-14.769 34.871-22.222 71.855-22.222 110.042h-21.333zM231.912 329.638c15.334-36.194 37.241-68.745 65.146-96.649l15.085 15.087c-25.962 25.963-46.322 56.213-60.588 89.886l-19.643-8.324zM297.058 232.99c27.897-27.895 60.447-49.877 96.664-65.152l8.29 19.657c-33.65 14.191-63.9 34.611-89.869 60.582l-15.085-15.087zM393.715 167.842c37.461-15.829 77.274-23.842 118.285-23.842v21.333c-38.191 0-75.174 7.454-109.982 22.161l-8.303-19.652zM512 144c41.011 0 80.828 8.013 118.362 23.91l-8.32 19.644c-34.871-14.767-71.855-22.221-110.042-22.221v-21.333zM630.362 167.91c36.194 15.334 68.745 37.244 96.649 65.148l-15.087 15.083c-25.963-25.958-56.213-46.319-89.886-60.587l8.324-19.644zM727.010 233.058c27.895 27.895 49.877 60.446 65.152 96.661l-19.657 8.294c-14.191-33.651-34.611-63.902-60.582-89.873l15.087-15.083zM792.158 329.715c15.829 37.461 23.842 77.274 23.842 118.285h-21.333c0-38.191-7.454-75.174-22.161-109.982l19.652-8.303zM816 448c0 41.011-8.013 80.828-23.91 118.36l-19.644-8.32c14.767-34.87 22.221-71.853 22.221-110.040h21.333zM792.090 566.358c-15.287 36.115-37.41 68.935-65.152 96.655l-15.078-15.091c25.801-25.776 46.37-56.295 60.582-89.879l19.648 8.315zM726.955 662.997c-27.695 27.785-60.531 49.918-96.674 65.164l-8.294-19.656c33.6-14.171 64.119-34.743 89.86-60.569l15.108 15.060zM630.285 728.159c-37.461 15.828-77.274 23.841-118.285 23.841v-21.333c38.191 0 75.174-7.453 109.982-22.159l8.303 19.651zM512 752c-7.377 0-13.333 5.958-13.333 13.333h-21.333c0-19.158 15.509-34.667 34.667-34.667v21.333zM498.667 765.333c0 7.376 5.956 13.333 13.333 13.333v21.333c-19.157 0-34.667-15.509-34.667-34.667h21.333zM512 778.667c44.655 0 87.974-8.72 128.708-25.957l8.316 19.647c-43.401 18.364-89.549 27.643-137.024 27.643v-21.333zM640.713 752.709c39.386-16.658 74.705-40.545 105.079-70.918l15.083 15.085c-32.29 32.293-69.905 57.74-111.855 75.482l-8.307-19.648zM745.792 681.791c30.362-30.363 54.187-65.748 70.852-105.085l19.644 8.322c-17.737 41.864-43.11 79.545-75.413 111.849l-15.083-15.085zM816.644 576.71c17.237-40.735 25.954-84.055 25.954-128.71h21.333c0 47.475-9.28 93.625-27.644 137.023l-19.644-8.313zM842.598 448c0-44.655-8.717-87.974-25.954-128.708l19.644-8.316c18.364 43.401 27.644 89.549 27.644 137.024h-21.333zM816.636 319.275c-16.589-39.377-40.469-74.692-70.844-105.067l15.083-15.083c32.294 32.29 57.745 69.909 75.422 111.868l-19.661 8.282zM745.792 214.208c-30.366-30.362-65.749-54.187-105.088-70.852l8.324-19.644c41.865 17.737 79.543 43.11 111.846 75.413l-15.083 15.083zM640.695 143.351c-40.725-17.297-84.041-26.018-128.695-26.018v-21.333c47.475 0 93.632 9.28 137.037 27.716l-8.341 19.635z" />
<glyph unicode="&#xe91f;" glyph-name="Menu" d="M170.667 661.333c0 23.564 19.103 42.667 42.667 42.667h561.971c23.561 0 42.667-19.103 42.667-42.667s-19.106-42.667-42.667-42.667h-561.971c-23.564 0-42.667 19.103-42.667 42.667zM170.667 440.158c0 23.565 19.103 42.667 42.667 42.667h561.971c23.561 0 42.667-19.102 42.667-42.667s-19.106-42.667-42.667-42.667h-561.971c-23.564 0-42.667 19.102-42.667 42.667zM213.333 261.649c-23.564 0-42.667-19.102-42.667-42.667s19.103-42.667 42.667-42.667h561.971c23.561 0 42.667 19.102 42.667 42.667s-19.106 42.667-42.667 42.667h-561.971z" />
<glyph unicode="&#xe921;" glyph-name="Notification" d="M799.189 306.278c-25.762 27.682-73.963 69.321-73.963 205.722 0 103.6-72.64 186.534-170.586 206.88v27.787c0 23.56-19.093 42.667-42.641 42.667s-42.641-19.107-42.641-42.667v-27.787c-97.945-20.346-170.585-103.28-170.585-206.88 0-136.401-48.2-178.039-73.96-205.722-8-8.597-11.546-18.88-11.48-28.945 0.147-21.867 17.307-42.667 42.8-42.667h511.733c25.493 0 42.667 20.8 42.799 42.667 0.068 10.065-3.477 20.361-11.477 28.945zM303.374 298.667c28.294 37.295 59.227 99.106 59.374 212.561 0 0.265-0.080 0.508-0.080 0.772 0 82.48 66.854 149.333 149.332 149.333s149.333-66.853 149.333-149.333c0-0.265-0.081-0.508-0.081-0.772 0.149-113.468 31.083-175.283 59.375-212.561h-417.253zM512 106.667c47.095 0 85.295 38.199 85.295 85.333h-170.586c0-47.134 38.199-85.333 85.291-85.333z" />
<glyph unicode="&#xe922;" glyph-name="Password-Off" d="M182.627 822.627l152.139-152.139c0.034-0.034 0.067-0.067 0.101-0.101l357.433-357.432c0.034-0.034 0.064-0.064 0.098-0.098l152.141-152.145c12.497-12.497 12.497-32.755 0-45.252s-32.755-12.497-45.252 0l-133.308 133.303c-52.049-33.161-112.427-51.396-174.498-52.412l-0.525-0.004c-118.089 0-208.7 67.422-267.802 130.462-29.842 31.834-52.62 63.543-67.941 87.266-7.68 11.891-13.539 21.858-17.522 28.937-1.993 3.541-3.52 6.37-4.573 8.363-0.527 0.994-0.936 1.783-1.226 2.347l-0.346 0.678-0.106 0.209-0.036 0.073-0.025 0.051c-0.006 0.013 0 0 28.622 14.31l-28.622-14.31c-4.65 9.301-4.492 20.279 0.425 29.44 33.83 63.045 78.847 119.283 132.754 166.016l-127.184 127.184c-12.497 12.497-12.497 32.758 0 45.255s32.758 12.497 45.255 0zM619.354 295.39l-67.008 67.012c-4.459-2.718-9.092-5.154-13.879-7.287-14.997-6.682-31.189-10.274-47.603-10.564-16.418-0.29-32.721 2.731-47.945 8.879-15.228 6.148-29.055 15.3-40.665 26.91s-20.762 25.442-26.911 40.666c-6.149 15.223-9.169 31.526-8.879 47.945 0.289 16.414 3.883 32.606 10.565 47.603 2.133 4.787 4.568 9.425 7.285 13.879l-74.373 74.373c-45.204-38.503-83.544-84.438-113.353-135.856 3.197-5.487 7.335-12.326 12.389-20.156 13.826-21.406 34.298-49.869 60.869-78.212 53.674-57.25 128.451-110.135 220.851-110.234 45.329 0.785 89.527 12.924 128.657 35.042zM432.525 482.223c-1.289-4.685-1.984-9.523-2.069-14.404-0.141-7.821 1.297-15.59 4.228-22.848 2.931-7.253 7.292-13.841 12.826-19.375 5.53-5.534 12.122-9.894 19.375-12.826 7.258-2.927 15.027-4.369 22.848-4.228 4.881 0.085 9.719 0.785 14.4 2.069l-71.607 71.612zM850.534 483.354l-28.621-14.31c28.621 14.31 28.629 14.298 28.621 14.31l-0.026 0.051-0.034 0.073-0.107 0.209-0.346 0.678c-0.29 0.563-0.7 1.353-1.229 2.351-1.054 1.988-2.581 4.817-4.574 8.358-3.981 7.083-9.839 17.045-17.519 28.941-15.322 23.721-38.101 55.43-67.942 87.263-59.093 63.035-149.692 130.447-267.763 130.462-23.74 0.053-47.403-2.653-70.514-8.063-11.307-2.647-20.292-11.211-23.479-22.377s-0.073-23.183 8.134-31.398l329.153-329.455c6.336-6.34 15.044-9.737 24.004-9.353 8.956 0.384 17.344 4.51 23.117 11.371 26.377 31.347 49.412 65.361 68.723 101.495 4.894 9.152 5.043 20.109 0.401 29.393zM754.074 421.193l-256.209 256.448c89.344-2.551 161.822-54.262 214.204-110.135 26.569-28.342 47.044-56.807 60.868-78.213 5.065-7.842 9.207-14.69 12.407-20.186-9.545-16.533-19.985-32.525-31.27-47.915z" />
<glyph unicode="&#xe924;" glyph-name="Plus" d="M533.333 757.333c0 17.673-14.327 32-32 32s-32-14.327-32-32v-266.667h-266.667c-17.673 0-32-14.327-32-32s14.327-32 32-32h266.667v-266.667c0-17.673 14.327-32 32-32s32 14.327 32 32v266.667h266.667c17.673 0 32 14.327 32 32s-14.327 32-32 32h-266.667v266.667z" />
<glyph unicode="&#xe925;" glyph-name="Remove" d="M384.579 477.257c-14.728 0-26.667-11.938-26.667-26.667s11.939-26.667 26.667-26.667h249.661c14.729 0 26.667 11.938 26.667 26.667s-11.938 26.667-26.667 26.667h-249.661zM509.41 789.333c-187.083 0-338.743-151.66-338.743-338.743 0-187.081 151.66-338.743 338.743-338.743 187.081 0 338.743 151.663 338.743 338.743 0 187.083-151.663 338.743-338.743 338.743zM224 450.59c0 157.628 127.782 285.41 285.41 285.41s285.41-127.782 285.41-285.41c0-157.628-127.782-285.41-285.41-285.41s-285.41 127.782-285.41 285.41z" />
<glyph unicode="&#xe926;" glyph-name="Reorder" d="M520.567 781.544c-5.193 10.385-20.011 10.385-25.203 0l-61.747-123.494c-4.685-9.369 2.125-20.393 12.604-20.393h123.49c10.479 0 17.293 11.024 12.604 20.393l-61.747 123.494zM520.567 114.458c-5.193-10.389-20.011-10.389-25.203 0l-61.747 123.494c-4.685 9.37 2.125 20.39 12.604 20.39h123.49c10.479 0 17.293-11.021 12.604-20.39l-61.747-123.494zM283.094 583.469c-14.963 0-27.094-12.13-27.094-27.094s12.131-27.095 27.094-27.095h433.501c14.963 0 27.093 12.132 27.093 27.095s-12.13 27.094-27.093 27.094h-433.501zM256 448c0 14.963 12.131 27.093 27.094 27.093h433.501c14.963 0 27.093-12.13 27.093-27.093s-12.13-27.093-27.093-27.093h-433.501c-14.963 0-27.094 12.13-27.094 27.093zM283.094 366.72c-14.963 0-27.094-12.13-27.094-27.093s12.131-27.098 27.094-27.098h433.501c14.963 0 27.093 12.134 27.093 27.098s-12.13 27.093-27.093 27.093h-433.501z" />
<glyph unicode="&#xe927;" glyph-name="Reset" d="M512 789.332c-56.491 0.126-112.115-13.892-161.799-40.776s-91.847-65.778-122.645-113.136v78.060h-56.889v-189.628h189.629v56.887h-99.303c32.619 61.078 86.456 108.111 151.361 132.232 64.907 24.121 136.39 23.663 200.983-1.289 64.589-24.951 117.82-72.672 149.653-134.162s40.068-132.503 23.155-199.648-57.809-125.781-114.974-164.855c-57.165-39.070-126.652-55.881-195.354-47.253-68.702 8.623-131.876 42.086-177.608 94.076-45.733 51.994-70.864 118.916-70.655 188.16h-56.889c0-67.511 20.019-133.504 57.525-189.636s90.815-99.878 153.186-125.713c62.369-25.835 131.002-32.597 197.213-19.426 66.214 13.171 127.031 45.679 174.767 93.414 47.74 47.74 80.247 108.557 93.419 174.771 13.167 66.21 6.409 134.839-19.426 197.212-25.835 62.37-69.585 115.679-125.717 153.185-56.128 37.506-122.125 57.525-189.632 57.525z" />
<glyph unicode="&#xe928;" glyph-name="Search" d="M670.959 243.789l127.846-127.846c12.497-12.497 32.759-12.497 45.257 0 12.493 12.493 12.493 32.755 0 45.252l-127.851 127.846c42.816 52.774 68.471 120.034 68.471 193.284 0 169.556-137.455 307.008-307.008 307.008-169.556 0-307.008-137.452-307.008-307.008 0-169.553 137.452-307.008 307.008-307.008 73.25 0 140.51 25.655 193.284 68.471zM234.667 482.325c0 134.21 108.798 243.008 243.008 243.008 134.208 0 243.008-108.798 243.008-243.008 0-65.536-25.946-125.013-68.122-168.721-1.143-0.87-2.244-1.826-3.29-2.876-1.045-1.045-2.005-2.142-2.876-3.29-43.708-42.176-103.185-68.122-168.721-68.122-134.21 0-243.008 108.8-243.008 243.008z" />
<glyph unicode="&#xe929;" glyph-name="Stop" d="M426.667 576c-23.564 0-42.667-19.103-42.667-42.667v-170.667c0-23.565 19.103-42.667 42.667-42.667h170.667c23.565 0 42.667 19.102 42.667 42.667v170.667c0 23.564-19.102 42.667-42.667 42.667h-170.667zM512 816c-203.241 0-368-164.759-368-368 0-203.243 164.759-368 368-368 203.243 0 368 164.757 368 368 0 203.241-164.757 368-368 368zM197.333 448c0 173.786 140.881 314.667 314.667 314.667s314.667-140.881 314.667-314.667c0-173.786-140.881-314.667-314.667-314.667s-314.667 140.881-314.667 314.667z" />
<glyph unicode="&#xe92a;" glyph-name="Upload" d="M701.525 560.192c-10.415-10.414-27.298-10.414-37.713 0l-122.099 122.097v-377.524c0-14.729-11.938-26.667-26.667-26.667-14.724 0-26.667 11.938-26.667 26.667v377.523l-122.094-122.095c-10.414-10.414-27.299-10.414-37.712 0s-10.414 27.298 0 37.712l167.618 167.619c10.415 10.414 27.298 10.414 37.713 0l167.62-167.619c10.415-10.414 10.415-27.299 0-37.712zM213.333 380.19c14.728 0 26.667-11.938 26.667-26.667v-134.097c0-10.709 4.254-20.979 11.827-28.553s17.844-11.827 28.554-11.827h469.332c10.709 0 20.983 4.254 28.557 11.827 7.569 7.573 11.827 17.843 11.827 28.553v134.097c0 14.729 11.938 26.667 26.667 26.667 14.724 0 26.667-11.938 26.667-26.667v-134.097c0-24.853-9.877-48.687-27.452-66.266-17.574-17.574-41.408-27.447-66.266-27.447h-469.332c-24.855 0-48.691 9.873-66.266 27.447-17.575 17.579-27.448 41.412-27.448 66.266v134.097c0 14.729 11.939 26.667 26.667 26.667z" />
<glyph unicode="&#xe92b;" glyph-name="User" d="M444.271 622.502c20.049 13.395 43.618 20.545 67.729 20.545 32.329 0 63.339-12.844 86.199-35.705s35.703-53.868 35.703-86.199c0-24.111-7.151-47.68-20.544-67.729-13.393-20.045-32.435-35.669-54.707-44.898-22.276-9.225-46.788-11.639-70.434-6.938-23.65 4.706-45.372 16.316-62.418 33.365-17.049 17.050-28.659 38.767-33.363 62.417-4.704 23.646-2.289 48.157 6.937 70.432s24.852 41.314 44.897 54.709zM471.364 460.326c12.028-8.038 26.167-12.326 40.636-12.326 19.392 0.017 37.986 7.731 51.699 21.444 13.709 13.713 21.423 32.307 21.444 51.699 0 14.465-4.292 28.607-12.326 40.635-8.038 12.029-19.465 21.403-32.828 26.939s-28.070 6.985-42.261 4.162c-14.187-2.822-27.221-9.788-37.449-20.017-10.231-10.229-17.195-23.262-20.019-37.45-2.82-14.188-1.374-28.895 4.164-42.262 5.534-13.363 14.912-24.785 26.94-32.823zM322.365 731.808c56.132 37.506 122.127 57.525 189.635 57.525 90.496-0.103 177.254-36.098 241.246-100.088 63.987-63.99 99.985-150.749 100.087-241.245 0-67.507-20.019-133.504-57.523-189.636-37.508-56.132-90.816-99.878-153.186-125.713s-131.004-32.597-197.214-19.426c-66.213 13.171-127.033 45.679-174.769 93.414-47.736 47.74-80.245 108.557-93.416 174.771-13.17 66.21-6.411 134.844 19.424 197.213 25.835 62.371 69.584 115.68 125.716 153.186zM365.714 228.57v-33.57c44.394-25.924 94.877-39.582 146.286-39.582s101.892 13.658 146.287 39.582v33.57c-0.021 19.396-7.731 37.986-21.444 51.699s-32.307 21.427-51.699 21.444h-146.287c-19.392-0.017-37.985-7.731-51.697-21.444s-21.425-32.303-21.445-51.699zM670.571 315.328c22.767-22.464 35.797-52.971 36.284-84.954 44.211 39.479 75.413 91.456 89.434 149.052 14.016 57.591 10.206 118.084-10.918 173.464-21.129 55.381-58.577 103.038-107.392 136.662s-106.692 51.628-165.965 51.628c-59.273 0-117.15-18.004-165.965-51.628s-86.264-81.281-107.392-136.662c-21.127-55.38-24.934-115.873-10.918-173.464 14.016-57.596 45.196-109.572 89.409-149.052 0.486 31.983 13.515 62.49 36.281 84.954s53.446 35.089 85.428 35.149h146.287c31.983-0.060 62.665-12.685 85.427-35.149z" />
<glyph unicode="&#xe92c;" glyph-name="View-Password" d="M496.986 550.824c-68.429 0-123.904-55.473-123.904-123.906 0-68.429 55.476-123.904 123.904-123.904 68.433 0 123.908 55.475 123.908 123.904 0 68.433-55.475 123.906-123.908 123.906zM437.082 426.918c0 33.084 26.82 59.904 59.904 59.904s59.908-26.82 59.908-59.904c0-33.084-26.825-59.904-59.908-59.904s-59.904 26.82-59.904 59.904zM862.583 441.25l-0.158 0.316-0.35 0.687c-0.294 0.572-0.713 1.374-1.246 2.385-1.071 2.022-2.624 4.898-4.651 8.499-4.049 7.202-10.010 17.34-17.822 29.436-15.586 24.132-38.758 56.393-69.116 88.773-60.13 64.138-152.247 132.655-272.256 132.655-120.006 0-212.125-68.516-272.255-132.655-30.356-32.38-53.528-64.64-69.114-88.773-7.813-12.096-13.772-22.234-17.823-29.436-2.026-3.601-3.578-6.477-4.649-8.499-0.535-1.011-0.951-1.813-1.245-2.385l-0.351-0.687-0.108-0.213-0.051-0.102c-0.006-0.009-0.011-0.021 28.611-14.332-28.622-14.31-28.602-14.349-28.596-14.362l0.145-0.286 0.351-0.687c0.294-0.572 0.71-1.374 1.245-2.385 1.071-2.022 2.623-4.898 4.649-8.499 4.050-7.202 10.010-17.34 17.823-29.436 15.586-24.132 38.758-56.393 69.114-88.772 60.129-64.137 152.248-132.655 272.255-132.655 120.009 0 212.126 68.518 272.256 132.655 30.357 32.38 53.53 64.64 69.116 88.772 7.812 12.096 13.773 22.234 17.822 29.436 2.027 3.601 3.58 6.477 4.651 8.499 0.533 1.011 0.951 1.813 1.246 2.385l0.35 0.687 0.158 0.316c0.004 0.009 0.013 0.021-28.612 14.332 28.625 14.31 28.617 14.323 28.612 14.332zM209.379 405.986c-5.271 8.162-9.565 15.27-12.855 20.932 3.289 5.662 7.583 12.77 12.855 20.932 14.092 21.82 34.958 50.833 62.042 79.723 54.752 58.403 131.127 112.427 225.565 112.427s170.812-54.024 225.566-112.427c27.085-28.89 47.953-57.903 62.042-79.723 5.274-8.162 9.566-15.27 12.855-20.932-3.29-5.662-7.582-12.77-12.855-20.932-14.089-21.82-34.957-50.833-62.042-79.723-54.754-58.402-131.127-112.427-225.566-112.427s-170.812 54.025-225.565 112.427c-27.084 28.89-47.951 57.903-62.042 79.723zM833.971 426.918l28.612-14.332c4.506 9.007 4.506 19.657 0 28.663l-28.612-14.332zM131.389 441.25l28.611-14.332-28.622-14.31c-4.504 9.007-4.493 19.635 0.011 28.642z" />
<glyph unicode="&#xe92d;" glyph-name="Icon-1" d="M201.461 758.539c-69.504-69.504-69.504-182.193 0-251.697l58.758-58.756-58.758-58.761c-69.504-69.504-69.504-182.191 0-251.695s182.193-69.504 251.697 0l58.756 58.756 58.761-58.756c69.504-69.504 182.191-69.504 251.695 0s69.504 182.191 0 251.695l-58.756 58.761 58.756 58.756c69.504 69.504 69.504 182.193 0 251.697s-182.191 69.504-251.695 0l-58.761-58.758-58.756 58.758c-69.504 69.504-182.193 69.504-251.697 0zM422.989 728.369l58.756-58.758-191.356-191.356-58.758 58.756c-52.842 52.842-52.842 138.516 0 191.357s138.516 52.842 191.357 0zM231.631 359.155l58.758 58.761 191.356-191.36-58.756-58.756c-52.842-52.843-138.516-52.843-191.357 0s-52.842 138.513 0 191.356zM600.845 167.799l-58.761 58.756 191.36 191.36 58.756-58.761c52.843-52.843 52.843-138.513 0-191.356s-138.513-52.843-191.356 0zM542.084 669.611l58.761 58.758c52.843 52.842 138.513 52.842 191.356 0s52.843-138.516 0-191.357l-58.756-58.756-191.36 191.356z" />
<glyph unicode="&#xe92e;" glyph-name="Icon-2" d="M204.496 354.458c-16.663-16.661-16.663-43.678 0-60.339s43.677-16.661 60.34 0l95.686 95.684 88.993-88.99-117.018-117.022c-16.663-16.661-16.663-43.678 0-60.339s43.677-16.661 60.34 0l117.018 117.018 95.689-95.684c16.661-16.661 43.678-16.661 60.339 0s16.661 43.678 0 60.339l-95.689 95.689 88.994 88.99 117.022-117.018c16.661-16.661 43.678-16.661 60.339 0s16.661 43.678 0 60.339l-117.022 117.022 95.689 95.684c16.661 16.663 16.661 43.677 0 60.34s-43.678 16.662-60.339 0l-95.689-95.685-88.994 88.992 117.022 117.019c16.661 16.663 16.661 43.677 0 60.34s-43.678 16.662-60.339 0l-117.022-117.019-95.684 95.685c-16.663 16.662-43.677 16.662-60.34 0s-16.662-43.677 0-60.34l95.685-95.686-88.993-88.992-117.018 117.017c-16.663 16.662-43.677 16.662-60.34 0s-16.662-43.677 0-60.34l117.019-117.017-95.686-95.689zM420.861 450.146l88.992-88.994 88.994 88.994-88.994 88.992-88.992-88.992z" />
<glyph unicode="&#xe92f;" glyph-name="Icon-3" d="M836.092 502.767l-229.7 229.701c-28.011 28.008-73.421 28.008-101.427 0l-0.401-0.399c11.499-5.199 22.272-12.524 31.723-21.975l181.973-181.97c42.010-42.014 42.010-110.127 0-152.141l-181.973-181.969c-40.508-40.512-105.289-41.958-147.535-4.348 26.231 26.372 26.188 69.013-0.129 95.33-26.361 26.364-69.1 26.364-95.46 0l-90.985 90.987c-42.012 42.014-42.012 110.127 0 152.141l181.971 181.97c21.801 21.801 50.631 32.289 79.196 31.464l16.265 16.266c42.014 42.012 110.127 42.012 152.141 0l229.7-229.7c42.010-42.014 42.010-110.127 0-152.141l-229.7-229.7c-32.111-32.107-79.462-39.676-118.758-22.707 7.471 9.327 12.365 20.429 14.81 32.678 26.082-10.991 57.344-5.862 78.592 15.386l229.7 229.7c28.006 28.006 28.006 73.417 0 101.427z" />
<glyph unicode="&#xe930;" glyph-name="Icon-4" d="M732.954 618.667c-40.414 0-93.257-25.905-159.573-75.642l3.106 46.629-40.41-35.23-6.217-89.113 89.109-6.217 40.414 35.23-43.52 3.11c70.46 52.844 104.653 60.098 117.090 60.098 65.28-1.036 119.159-53.881 119.159-120.198s-53.879-119.164-119.159-119.164c-50.773 0-156.467 87.040-211.383 140.924-16.58 16.58-161.647 159.573-254.903 159.573-99.474 0-181.333-80.823-181.333-181.333s81.859-181.333 181.333-181.333c40.411 0 93.257 25.903 159.573 75.644l-3.109-46.63 40.412 35.23 6.217 89.114-89.112 6.217-40.411-35.23 43.52-3.11c-70.461-52.843-104.655-60.096-117.090-60.096-65.28 1.033-119.162 53.879-119.162 120.196s53.882 119.162 119.162 119.162c50.773 0 156.465-87.038 211.383-140.922 16.58-16.58 161.647-159.573 254.903-159.573 99.473 0 181.333 80.823 181.333 181.333s-81.86 181.333-181.333 181.333z" />
<glyph unicode="&#xe931;" glyph-name="Icon-5" d="M650.667 618.667h-352c-70.692 0-128-57.308-128-128v-128c0-59.644 40.793-109.76 96-123.968v68.531c-19.13 11.063-32 31.748-32 55.437v128c0 35.345 28.654 64 64 64h352c17.673 0 32 14.327 32 32s-14.327 32-32 32zM714.667 546.105c19.132-11.066 32-31.75 32-55.438v-128c0-35.345-28.655-64-64-64h-352c-17.673 0-32-14.327-32-32s14.327-32 32-32h352c70.694 0 128 57.306 128 128v128c0 59.643-40.794 109.758-96 123.968v-68.529z" />
<glyph unicode="&#xe932;" glyph-name="Classification" d="M791.275 354.91h-31.031v93.090c0 8.23-3.268 16.124-9.088 21.943s-13.713 9.088-21.943 9.088h-186.18v62.060h31.027c16.452 0.034 32.218 6.583 43.849 18.215s18.18 27.397 18.214 43.846v124.121c0 16.46-6.541 32.245-18.176 43.884-11.639 11.639-27.426 18.177-43.887 18.177h-124.117c-16.461 0-32.247-6.539-43.886-18.177s-18.177-27.424-18.177-43.884v-124.121c0.034-16.449 6.583-32.214 18.215-43.846s27.395-18.181 43.848-18.215h31.027v-62.060h-186.181c-4.075 0-8.11-0.802-11.875-2.364-3.765-1.557-7.186-3.844-10.067-6.724-2.881-2.884-5.167-6.302-6.726-10.069-1.559-3.763-2.362-7.799-2.362-11.874v-93.090h-31.030c-16.449-0.034-32.215-6.583-43.846-18.214s-18.181-27.396-18.215-43.849v-124.122c0.034-16.448 6.583-32.213 18.215-43.844s27.397-18.18 43.846-18.214h124.121c16.449 0.034 32.214 6.583 43.846 18.214s18.181 27.396 18.215 43.844v124.122c-0.034 16.452-6.583 32.218-18.215 43.849s-27.397 18.18-43.846 18.214h-31.031v62.059h372.362v-62.059h-31.027c-16.452-0.034-32.218-6.583-43.849-18.214s-18.18-27.396-18.214-43.849v-124.122c0.034-16.448 6.583-32.213 18.214-43.844s27.396-18.18 43.849-18.214h124.122c16.448 0.034 32.213 6.583 43.844 18.214s18.18 27.396 18.214 43.844v124.122c-0.034 16.452-6.583 32.218-18.214 43.849s-27.396 18.18-43.844 18.214zM449.941 727.273h124.117v-124.121h-124.117v124.121zM356.849 168.725h-124.121v124.122h124.121v-124.122zM667.153 168.725v124.122h124.122v-124.122h-124.122z" />
<glyph unicode="&#xe933;" glyph-name="Components" d="M287.591 522.692c-19.094 95.567 8.071 174.855 91.708 229.152 77.666 50.422 159.812 49.094 239.436 1.362 64.444-38.637 119.053-126.208 92.629-229.516 102.336-36.57 161.438-105.139 158.857-213.15-1.98-83.055-45.355-145.591-122.688-181.244-90.15-41.562-173.12-24.192-248.166 38.302-66.082-57.335-142.199-75.746-227.368-47.091-59.026 19.857-100.937 59.567-126.199 115.085-49.162 108.002 5.245 247.863 141.791 287.1zM499.635 469.295c57.485 51.614 124.407 70.176 200.828 55.987 21.184 70.49-1.856 163.408-83.759 217.806-75.396 50.075-176.23 47.334-249.411-11.074-72.452-57.816-87.756-146.191-68.265-206.698 76.285 14.103 143.011-4.467 200.606-56.021zM507.166 175.863c50.428-51.191 140.681-77.747 226.206-42.944 86.417 35.179 137.907 121.579 126.276 210.867-11.669 89.502-81.894 152.393-151.693 168.849-26.005-70.844-76.019-117.615-150.319-140.041 17.523-74.018 0.602-139.524-50.47-196.732zM291.423 512.747c-72.258-17.301-146.106-84.096-152.942-180.548-6.083-85.734 45.473-170.031 136.216-202.62 85.785-30.822 171.992-0.678 217.249 46.404-50.991 57.259-67.936 122.739-50.295 196.817-35.348 10.065-66.397 26.876-92.885 51.418-26.7 24.747-45.27 54.417-57.343 88.529zM499.635 183.428c47.671 47.654 66.79 124.228 47.343 186.931-31.548-6.571-63.223-6.588-94.771 0.009-19.281-62.737-0.422-139.132 47.428-186.94zM507.78 462.583c9.293-13.043 19.072-25.143 26.957-38.306 7.962-13.282 14.042-27.648 21.218-42.065 69.675 21.329 117.188 65.289 142.17 132.587-59.972 15.654-139.75-1.741-190.345-52.215zM492.378 461.53c-23.223 25.971-68.444 48.789-111.98 56.047-26.353 4.399-52.681 3.891-79.491-2.334 25.431-67.921 72.901-111.902 143.577-133.316 10.684 29.931 25.852 56.538 47.893 79.603zM544.695 379.947c-9.835 28.335-24.273 53.086-45.18 74.743-20.736-22.114-35.354-46.562-44.949-74.735 30.204-6.507 59.806-6.473 90.129-0.009z" />
<glyph unicode="&#xe934;" glyph-name="Continue" d="M626.253 447.949c0 5.265-1.754 10.53-6.14 15.795-33.348 33.348-67.575 67.575-100.919 100.921-20.186 20.184-50.901-10.531-30.716-30.715 21.939-21.937 42.999-43.002 64.939-64.941-120.226 0-241.328 0-361.554 0-5.265 0-10.531-1.754-13.164-4.386-5.265-3.511-8.776-9.651-7.898-17.553 2.633-120.222 63.184-232.55 167.614-293.982 189.551-113.203 444.924-9.651 502.844 205.35 57.916 216.757-109.696 426.494-329.963 430.882-28.083 0.877-28.083-43.001 0-43.878 121.101-2.633 231.676-73.715 276.429-186.921 43.878-109.694 16.674-237.818-65.818-321.189-83.366-83.366-211.49-109.692-321.185-65.813-106.185 42.121-176.39 143.040-186.043 254.49 112.328 0 223.776 0 336.105 0-21.939-21.939-42.999-42.999-64.939-64.939-20.186-20.186 11.409-50.897 30.716-30.716 34.223 34.227 68.45 68.45 103.552 103.552 4.386 3.511 6.14 8.777 6.14 14.042z" />
<glyph unicode="&#xe935;" glyph-name="Modules" d="M879.074 255.595v136.67c-0.009 1.318-0.188 2.637-0.533 3.908v0.922c-0.346 1.071-0.811 2.099-1.382 3.068v0.461c-0.691 1.071-1.519 2.048-2.453 2.914l-0.691 0.614c-0.875 0.717-1.826 1.331-2.837 1.839h-0.384l-122.099 56.371v88.276c0 2.69-0.713 5.332-2.057 7.661-1.348 2.329-3.281 4.263-5.611 5.608l-91.345 51.769v101.467c-0.060 1.328-0.29 2.643-0.691 3.911v0.921c-0.35 1.044-0.815 2.046-1.378 2.991v0.537c-0.7 1.043-1.523 1.996-2.453 2.838l-0.691 0.614c-0.875 0.716-1.826 1.334-2.837 1.841h-0.384l-123.785 57.138c-2.010 0.923-4.194 1.401-6.404 1.401-2.214 0-4.399-0.478-6.404-1.401l-123.404-56.908h-0.384c-1.011-0.507-1.963-1.124-2.838-1.841l-0.69-0.614c-0.936-0.866-1.76-1.844-2.454-2.914v-0.46c-0.571-0.969-1.034-1.998-1.381-3.068v-0.92c-0.346-1.275-0.527-2.59-0.537-3.911v-101.851l-92.034-53.686c-2.329-1.345-4.264-3.279-5.61-5.608s-2.056-4.971-2.059-7.661v-85.591h-0.537c-2.009 0.922-4.193 1.399-6.404 1.399s-4.395-0.478-6.404-1.399l-123.632-56.678h-0.384c-1.011-0.508-1.963-1.122-2.838-1.839l-0.69-0.614c-0.936-0.866-1.76-1.843-2.454-2.914v-0.461c-0.571-0.969-1.034-1.997-1.381-3.068v-0.922c-0.346-1.276-0.527-2.59-0.537-3.908v-136.9c-0.049-2.859 0.701-5.67 2.164-8.124s3.583-4.446 6.119-5.76l123.325-56.832c2.009-0.922 4.193-1.399 6.404-1.399s4.396 0.478 6.404 1.399l54.453 25.387 177.704-101.542c2.33-1.348 4.975-2.057 7.667-2.057s5.338 0.708 7.671 2.057l167.424 97.707 46.861-21.551c2.010-0.922 4.194-1.399 6.404-1.399s4.395 0.478 6.404 1.399l123.247 56.832c2.637 1.237 4.868 3.2 6.43 5.658s2.389 5.312 2.389 8.226zM632.427 368.333l92.723-43.025v-102.618l-92.723 42.718v102.925zM740.412 352.303l-86.665 39.962 86.741 39.957 86.741-39.957-86.818-39.962zM403.031 693.444l92.573-43.026v-102.694l-92.573 42.566v103.155zM526.281 650.418l92.723 43.026v-103.155l-92.723-42.566v102.694zM510.942 757.101l86.741-39.958-86.741-39.958-86.667 39.958 86.667 39.958zM266.053 432.299l86.742-39.957-86.742-40.038-86.665 39.962 86.665 40.034zM281.392 325.692l92.648 42.718v-103.002l-92.648-42.718v103.002zM158.143 368.333l92.571-43.025v-102.618l-92.571 42.718v102.925zM512.243 139.785l-150.781 85.82 34.436 16.107c2.662 1.233 4.916 3.2 6.493 5.675s2.411 5.35 2.404 8.282v136.597c-0.010 1.318-0.19 2.637-0.537 3.908v0.922c-0.346 1.071-0.809 2.099-1.381 3.068v0.461c-0.694 1.071-1.518 2.048-2.454 2.914l-0.69 0.614c-0.875 0.717-1.827 1.331-2.838 1.839h-0.383l-92.648 42.645v91.035l69.025 40.188c0.086-2.834 0.956-5.588 2.513-7.958s3.74-4.26 6.307-5.464l122.867-57.062c2.005-0.922 4.19-1.399 6.404-1.399 2.21 0 4.395 0.478 6.404 1.399l123.324 56.831c2.637 1.222 4.877 3.168 6.451 5.612s2.423 5.286 2.445 8.194l67.721-38.348 0.691-85.976-107.371-49.468h-0.384c-1.011-0.508-1.963-1.122-2.837-1.839l-0.691-0.614c-0.934-0.866-1.762-1.843-2.453-2.914v-0.461c-0.572-0.969-1.037-1.997-1.382-3.068v-0.922c-0.346-1.276-0.525-2.59-0.538-3.908v-136.9c-0.047-2.859 0.704-5.67 2.167-8.124s3.58-4.446 6.118-5.76l42.487-19.558-140.89-82.368zM755.827 222.69v102.618l92.57 43.025v-102.925l-92.57-42.718z" />
<glyph unicode="&#xe936;" glyph-name="Review" d="M474.551 618.845c5.939 4.37 13.030 6.721 20.305 6.73 7.283 0.026 14.391-2.294 20.352-6.641 5.965-4.347 10.487-10.509 12.945-17.639l28.907-85.023 86.639-2.244c7.253-0.23 14.259-2.79 20.062-7.326 5.798-4.54 10.108-10.833 12.335-18.018 2.227-7.189 2.261-14.916 0.098-22.123-2.159-7.211-6.409-13.547-12.169-18.142l-68.749-54.989 24.678-86.421c2.078-7.253 1.946-15.002-0.384-22.174-2.33-7.168-6.741-13.414-12.621-17.869-5.884-4.454-12.949-6.899-20.224-7.002s-14.4 2.146-20.395 6.434l-71.475 51.059-71.308-51.14c-5.989-4.292-13.109-6.545-20.381-6.455-7.271 0.094-14.336 2.53-20.221 6.976s-10.301 10.675-12.641 17.839c-2.339 7.164-2.487 14.908-0.423 22.161l24.841 86.336-68.829 54.993c-5.775 4.591-10.041 10.927-12.212 18.142-2.171 7.219-2.14 14.955 0.088 22.153s6.545 13.5 12.356 18.039c5.811 4.54 12.831 7.095 20.095 7.317l86.635 2.325 28.826 85.024c2.432 7.133 6.929 13.308 12.868 17.678zM501.952 599.457c-2.078 1.517-4.557 2.321-7.095 2.302l-0.081-0.084c-2.534 0.019-5.013-0.786-7.091-2.302s-3.648-3.669-4.493-6.158l-34.069-100.466-102.371-2.79c-2.578 0-5.089-0.849-7.174-2.423-2.085-1.579-3.636-3.802-4.431-6.353s-0.792-5.299 0.007-7.851c0.8-2.547 2.355-4.77 4.442-6.34l81.311-64.764-29.109-102.157c-0.794-2.551-0.792-5.295 0.006-7.842 0.798-2.551 2.351-4.77 4.437-6.345s4.596-2.419 7.172-2.415c2.576 0 5.085 0.853 7.168 2.432l84.277 60.489 84.403-60.322c2.082-1.583 4.599-2.441 7.181-2.445 2.586 0 5.099 0.849 7.189 2.428 2.091 1.583 3.639 3.81 4.433 6.37 0.794 2.556 0.785 5.308-0.021 7.863l-29.193 102.114 81.314 64.845c2.091 1.574 3.644 3.802 4.446 6.353 0.798 2.556 0.798 5.308-0.004 7.859-0.798 2.551-2.359 4.779-4.45 6.349-2.091 1.574-4.608 2.419-7.189 2.411l-102.37 2.62-34.15 100.465c-0.845 2.489-2.415 4.641-4.493 6.158zM494.933 764.546c-188.962 0-342.146-153.184-342.146-342.146s153.184-342.144 342.146-342.144c188.962 0 342.148 153.182 342.148 342.144s-153.186 342.146-342.148 342.146zM186.921 422.4c0 170.111 137.902 308.013 308.012 308.013 170.112 0 308.015-137.902 308.015-308.013s-137.903-308.011-308.015-308.011c-170.11 0-308.012 137.899-308.012 308.011z" />
<glyph unicode="&#xe937;" glyph-name="Test-Cases" d="M415.525 538.38l-55.906-55.905-7.144 7.147c-4.582 4.523-10.767 7.049-17.206 7.031-6.439-0.021-12.608-2.59-17.161-7.142s-7.119-10.722-7.14-17.161c-0.020-6.438 2.508-12.625 7.032-17.207l24.381-24.38c2.263-2.266 4.951-4.062 7.909-5.286s6.128-1.856 9.329-1.856c3.202 0 6.372 0.631 9.329 1.856s5.645 3.021 7.909 5.286l73.143 73.143c4.523 4.582 7.053 10.765 7.031 17.207-0.021 6.438-2.586 12.606-7.142 17.159-4.553 4.553-10.722 7.119-17.161 7.139s-12.623-2.508-17.205-7.032zM513.045 489.621c4.574 4.574 10.773 7.142 17.242 7.142h146.283c6.468 0 12.668-2.569 17.242-7.142s7.142-10.773 7.142-17.242c0-6.464-2.569-12.668-7.142-17.237-4.574-4.574-10.773-7.142-17.242-7.142h-146.283c-6.468 0-12.668 2.569-17.242 7.142-4.574 4.57-7.142 10.773-7.142 17.237 0 6.468 2.569 12.668 7.142 17.242zM513.045 270.191c4.574 4.574 10.773 7.142 17.242 7.142h146.283c6.468 0 12.668-2.569 17.242-7.142 4.574-4.57 7.142-10.773 7.142-17.237 0-6.468-2.569-12.668-7.142-17.242s-10.773-7.142-17.242-7.142h-146.283c-6.468 0-12.668 2.569-17.242 7.142s-7.142 10.773-7.142 17.242c0 6.464 2.569 12.668 7.142 17.237zM359.619 263.049l55.906 55.902c4.582 4.527 10.767 7.053 17.205 7.031 6.438-0.017 12.608-2.586 17.161-7.138 4.557-4.553 7.121-10.722 7.142-17.161s-2.509-12.625-7.031-17.207l-73.143-73.143c-2.263-2.261-4.951-4.058-7.909-5.286-2.958-1.225-6.128-1.856-9.329-1.856s-6.372 0.631-9.329 1.856c-2.958 1.229-5.645 3.025-7.909 5.286l-24.381 24.384c-4.524 4.578-7.052 10.765-7.032 17.203s2.587 12.608 7.14 17.165c4.553 4.553 10.722 7.117 17.161 7.138s12.624-2.509 17.206-7.031l7.144-7.142zM579.046 643.048h-146.283c-6.468 0-12.669 2.569-17.242 7.141s-7.141 10.773-7.141 17.24c0 6.466 2.569 12.667 7.141 17.24s10.773 7.141 17.242 7.141h146.283c6.468 0 12.668-2.569 17.242-7.141s7.142-10.774 7.142-17.24c0-6.467-2.569-12.668-7.142-17.24s-10.773-7.141-17.242-7.141zM676.57 789.333h-341.332c-32.32-0.038-63.304-12.893-86.158-35.747s-35.709-53.838-35.747-86.158v-438.859c0.038-32.316 12.893-63.305 35.747-86.157s53.838-35.708 86.158-35.746h341.332c32.32 0.038 63.305 12.894 86.161 35.746 22.852 22.852 35.708 53.841 35.746 86.157v438.859c-0.038 32.32-12.894 63.304-35.746 86.158-22.857 22.854-53.841 35.709-86.161 35.747zM749.713 228.57c-0.021-19.392-7.731-37.982-21.444-51.695s-32.307-21.423-51.699-21.444h-341.332c-19.392 0.021-37.984 7.731-51.696 21.444s-21.425 32.303-21.446 51.695v438.859c0.021 19.392 7.734 37.984 21.446 51.696s32.304 21.425 51.696 21.446h341.332c19.392-0.021 37.986-7.734 51.699-21.446s21.423-32.304 21.444-51.696v-438.859z" />
<glyph unicode="&#xe938;" glyph-name="Total" d="M170.667 135.949c0-16.183 13.097-29.282 29.281-29.282h646.021c16.188 0 29.282 13.099 29.282 29.282v20.587c0 65.374-49.233 118.912-112.465 126.938v79.654c34.010 12.126 58.564 44.326 58.564 82.449s-24.555 70.323-58.564 82.449v52.654c34.010 12.126 58.564 44.326 58.564 82.449s-24.555 70.322-58.564 82.449v14.475c0 16.17-13.094 29.281-29.282 29.281-16.183 0-29.282-13.111-29.282-29.281v-14.475c-34.010-12.126-58.56-44.326-58.56-82.449s24.55-70.321 58.56-82.447v-52.656c-34.010-12.126-58.56-44.326-58.56-82.449s24.55-70.319 58.56-82.449v-78.029h-151.983v42.014c34.014 12.126 58.564 44.326 58.564 82.449s-24.55 70.323-58.564 82.449v268.041c0 16.17-13.094 29.281-29.278 29.281-16.188 0-29.282-13.111-29.282-29.281v-268.041c-34.010-12.126-58.564-44.326-58.564-82.449s24.555-70.323 58.564-82.449v-42.014h-151.985v51.955c34.025 12.117 58.592 44.326 58.592 82.458 0 38.135-24.567 70.34-58.592 82.458v57.627c34.025 12.117 58.592 44.324 58.592 82.458s-24.567 70.341-58.592 82.458v35.54c0 16.17-13.097 29.281-29.281 29.281s-29.282-13.111-29.282-29.281v-35.558c-33.993-12.135-58.534-44.328-58.534-82.44s24.541-70.305 58.534-82.44v-57.662c-33.993-12.134-58.534-44.326-58.534-82.441 0-38.11 24.541-70.306 58.534-82.441v-53.598c-63.231-8.026-112.465-61.564-112.465-126.938v-20.587zM522.961 438.844c16.154 0 29.278-13.141 29.278-29.282s-13.124-29.282-29.278-29.282c-16.158 0-29.282 13.141-29.282 29.282s13.124 29.282 29.282 29.282zM733.504 692.41c16.158 0 29.282-13.14 29.282-29.281s-13.124-29.282-29.282-29.282c-16.414 0-29.282 12.868-29.282 29.282 0 16.142 13.129 29.281 29.282 29.281zM733.504 474.859c16.158 0 29.282-13.141 29.282-29.282s-13.124-29.282-29.282-29.282c-16.414 0-29.282 12.868-29.282 29.282 0 16.141 13.129 29.282 29.282 29.282zM312.442 390.229c-16.156 0-29.282 13.141-29.282 29.282s13.126 29.282 29.282 29.282c16.413 0 29.281-12.868 29.281-29.282 0-16.141-13.125-29.282-29.281-29.282zM312.442 612.773c-16.156 0-29.282 13.139-29.282 29.281s13.126 29.281 29.282 29.281c16.156 0 29.281-13.139 29.281-29.281 0-16.414-12.868-29.281-29.281-29.281zM299.231 226.539h447.457c35.657 0 65.169-26.795 69.457-61.308h-586.372c4.289 34.513 33.8 61.308 69.458 61.308z" />
<glyph unicode="&#xe939;" glyph-name="Reports" d="M362.667 234.667c0-11.78 9.551-21.333 21.333-21.333s21.333 9.553 21.333 21.333v256c0 11.78-9.551 21.333-21.333 21.333s-21.333-9.553-21.333-21.333v-256zM490.667 213.333c-11.78 0-21.333 9.553-21.333 21.333v170.667c0 11.78 9.553 21.333 21.333 21.333s21.333-9.553 21.333-21.333v-170.667c0-11.78-9.553-21.333-21.333-21.333zM576 234.667c0-11.78 9.553-21.333 21.333-21.333s21.333 9.553 21.333 21.333v85.333c0 11.78-9.553 21.333-21.333 21.333s-21.333-9.553-21.333-21.333v-85.333zM768 554.498v-341.165c0-58.91-47.757-106.667-106.667-106.667h-341.333c-58.91 0-106.667 47.757-106.667 106.667v469.333c0 58.91 47.756 106.667 106.667 106.667h213.333c0.964 0 1.916-0.065 2.854-0.192l231.812-234.643zM618.667 533.333c-58.91 0-106.667 47.756-106.667 106.667v106.667h-192c-35.346 0-64-28.654-64-64v-469.333c0-35.349 28.654-64 64-64h341.333c35.349 0 64 28.651 64 64v320h-106.667zM695.164 576l-140.497 140.497v-76.497c0-35.346 28.651-64 64-64h76.497zM767.991 555.212c0.009-0.238 0.009-0.477 0.009-0.714v0.169c0 0.182-0.004 0.364-0.009 0.546z" />
<glyph unicode="&#xe93a;" glyph-name="Requirements" d="M341.181 789.333c-23.167 0-45.008-9.833-60.83-26.709-15.767-16.818-24.351-39.282-24.351-62.373v-499.321c0-23.091 8.583-45.555 24.351-62.374 15.822-16.875 37.663-26.709 60.83-26.709h351.086c23.168 0 45.009 9.835 60.83 26.709 15.77 16.819 24.35 39.283 24.35 62.374v343.283c0 6.775-2.577 13.296-7.211 18.238l-204.8 218.453c-5.043 5.377-12.083 8.428-19.456 8.428h-204.799zM703.855 555.276l-121.455 129.553v-129.553h121.455zM532.087 736c-1.929-3.691-3.021-7.889-3.021-12.343v-195.047c0-14.729 11.938-26.667 26.667-26.667h168.38v-301.013c0-10.018-3.746-19.307-9.924-25.894-6.127-6.537-14.050-9.856-21.922-9.856h-351.086c-7.871 0-15.796 3.319-21.922 9.856-6.179 6.588-9.926 15.876-9.926 25.894v499.321c0 10.017 3.747 19.304 9.926 25.896 6.125 6.533 14.051 9.853 21.922 9.853h190.906z" />
<glyph unicode="&#xe93b;" glyph-name="Test-Data-Management" d="M332.122 750.168c48.506 14.552 113.919 23.165 185.036 23.165s136.529-8.614 185.033-23.165c24.085-7.225 45.517-16.358 61.525-27.711 10.133-7.187 20.407-17.001 26.197-29.573 2.995-4.312 4.753-9.551 4.753-15.199v-413.152c0-23.185-13.269-41.63-29.124-54.929-15.974-13.402-37.513-24.26-61.815-32.849-48.853-17.267-114.714-27.422-186.569-27.422-71.859 0-137.719 10.155-186.568 27.422-24.306 8.589-45.844 19.447-61.818 32.849-15.852 13.299-29.123 31.744-29.123 54.929v413.152c0 5.648 1.756 10.887 4.752 15.199 5.792 12.573 16.067 22.386 26.199 29.573 16.007 11.353 37.439 20.486 61.522 27.711zM293.351 671.414c0.797-1.265 2.882-3.837 8.104-7.54 9.38-6.653 24.683-13.736 45.993-20.129 42.281-12.684 102.289-20.916 169.711-20.916s127.428 8.232 169.711 20.916c21.308 6.393 36.612 13.476 45.99 20.129 5.222 3.703 7.309 6.275 8.102 7.54-0.794 1.265-2.88 3.837-8.102 7.541-9.378 6.653-24.683 13.736-45.99 20.129-42.283 12.684-102.289 20.916-169.711 20.916s-127.43-8.232-169.711-20.916c-21.31-6.393-36.613-13.476-45.993-20.129-5.222-3.703-7.306-6.276-8.104-7.541zM292.982 607.434v-154.932c1.090-0.649 2.525-1.429 4.381-2.313 9.751-4.634 25.587-9.519 47.353-13.879 43.090-8.631 103.959-14.157 172.443-14.157s129.353 5.525 172.442 14.157c21.764 4.361 37.602 9.246 47.351 13.879 1.856 0.883 3.294 1.664 4.382 2.313v154.932c-11.755-5.625-24.99-10.529-39.142-14.774-48.503-14.552-113.916-23.165-185.033-23.165s-136.529 8.614-185.036 23.165c-14.15 4.245-27.384 9.149-39.141 14.774zM741.333 394.662c-12.169-4.092-26.138-7.62-41.259-10.65-47.492-9.51-112.043-15.194-182.916-15.194s-135.426 5.683-182.918 15.194c-15.119 3.029-29.088 6.558-41.258 10.65v-130.129c0-1.31 0.665-6.182 10.071-14.071 9.284-7.791 24.328-16.004 45.312-23.424 41.733-14.75 101.291-24.371 168.794-24.371 67.499 0 127.061 9.621 168.794 24.371 20.983 7.42 36.028 15.633 45.312 23.424 9.404 7.889 10.069 12.762 10.069 14.071v130.129z" />
<glyph unicode="&#xe93c;" glyph-name="Test-Design" d="M609.31 714.917c-47.966 21.373-101.559 26.668-152.785 15.095-51.223-11.573-97.333-39.395-131.453-79.315s-54.422-89.801-57.877-142.204c-3.455-52.399 10.121-104.512 38.704-148.57 28.583-44.053 70.641-77.687 119.901-95.889 49.26-18.197 103.084-19.985 153.443-5.099 50.359 14.891 94.558 45.662 126.003 87.723 31.441 42.061 48.448 93.158 48.478 145.673v24.845c0 14.729 11.938 26.666 26.667 26.666s26.667-11.937 26.667-26.666v-24.858c-0.038-64.017-20.766-126.323-59.093-177.596-11.021-14.737-23.322-28.339-36.719-40.67l120.529-120.525c10.411-10.415 10.411-27.298 0-37.713-10.415-10.415-27.298-10.415-37.713 0l-125.542 125.538c-22.916-14.447-47.842-25.783-74.15-33.562-61.389-18.15-127.002-15.97-187.051 6.217-60.049 22.182-111.318 63.185-146.16 116.89-34.842 53.7-51.392 117.231-47.18 181.107s28.96 124.681 70.552 173.344c41.593 48.663 97.801 82.578 160.245 96.686 62.438 14.108 127.77 7.654 186.244-18.401 13.453-5.994 19.499-21.759 13.504-35.212s-21.76-19.499-35.213-13.505zM799.236 727.339c10.419-10.409 10.428-27.293 0.021-37.713l-270.195-270.465c-5.001-5.005-11.785-7.817-18.859-7.821-7.074 0-13.862 2.807-18.863 7.812l-81.060 81.058c-10.414 10.415-10.414 27.298 0 37.711s27.3 10.414 37.711 0l62.195-62.193 251.337 251.591c10.411 10.419 27.294 10.428 37.713 0.019z" />
<glyph unicode="&#xe93d;" glyph-name="Test-Execution" d="M458.752 501.248c0 15.019 16.384 24.576 29.355 16.384l86.699-54.613c12.288-7.509 12.288-24.576 0-32.085l-86.699-53.931c-12.971-7.509-29.355 1.365-29.355 16.384v107.861zM512 615.254c-92.16 0-167.253-75.093-167.253-167.254s75.093-167.253 167.253-167.253c92.16 0 167.253 75.093 167.253 167.253s-75.093 167.254-167.253 167.254zM512 317.611c-72.363 0-130.389 58.709-130.389 130.389s58.027 130.39 130.389 130.39c72.363 0 130.389-58.027 130.389-130.39s-58.027-130.389-130.389-130.389zM797.355 532.651h-34.133c-4.096 11.606-8.875 23.211-14.336 34.134l23.893 23.893c7.509 7.509 11.605 17.067 11.605 27.307s-4.096 20.48-11.605 27.307l-63.488 63.488c-15.019 15.019-39.595 15.019-55.296 0l-23.893-23.893c-10.923 5.461-22.528 10.24-34.133 14.336v34.133c0 21.163-17.749 38.912-38.912 38.912h-90.795c-21.163 0-38.912-17.749-38.912-38.912v-34.133c-11.605-4.096-23.211-8.875-34.133-14.336l-23.893 23.893c-15.019 15.019-40.277 15.019-55.296 0l-64.171-64.171c-15.019-15.019-15.019-39.595 0-55.296l23.893-23.893c-5.461-10.923-10.24-22.528-14.336-34.134h-32.768c-21.163 0-38.912-17.749-38.912-38.912v-90.112c0-21.163 17.749-38.912 38.912-38.912h34.133c4.096-11.605 8.875-23.211 14.336-34.133l-23.893-23.893c-7.509-7.509-11.605-17.067-11.605-27.307s4.096-20.48 11.605-27.307l64.171-64.171c15.019-15.019 39.595-15.019 55.296 0l23.893 23.893c10.923-5.461 22.528-10.24 34.133-14.336v-33.451c0-21.163 17.749-38.912 38.912-38.912h90.112c21.163 0 38.912 17.749 38.912 38.912v34.133c11.605 4.096 23.211 8.875 34.133 14.336l23.893-23.893c15.019-15.019 40.277-15.019 55.296 0l64.171 64.171c15.019 15.019 15.019 39.595 0 55.296l-23.893 23.893c5.461 10.923 10.24 22.528 14.336 34.133h33.451c21.163 0 38.912 17.749 38.912 38.912v90.112c-0.683 21.163-18.432 38.912-39.595 38.912zM800.085 402.944c0-1.365-1.365-2.731-2.731-2.731h-47.104c-8.192 0-15.019-5.461-17.749-13.653-4.779-18.432-12.288-35.499-21.163-51.883-4.096-6.827-2.731-15.701 2.731-21.845l33.451-33.451c1.365-1.365 1.365-2.731 0-3.413l-64.171-63.488h-3.413l-33.451 33.451c-5.461 5.461-15.019 6.827-21.845 2.731-16.384-8.875-33.451-16.384-51.883-21.163-8.192-2.048-12.971-9.557-12.971-17.749v-47.104c0-1.365-1.365-2.731-2.731-2.731h-90.112c-1.365 0-2.731 1.365-2.731 2.731v47.104c0 8.192-5.461 15.019-13.653 17.749-18.432 4.779-35.499 12.288-51.883 21.163-2.731 1.365-6.144 2.048-8.875 2.048-4.779 0-9.557-2.048-12.971-5.461l-33.451-33.451c-1.365-1.365-2.731-1.365-3.413 0l-63.488 64.171v3.413l33.451 33.451c5.461 5.461 6.827 15.019 2.731 21.845-8.875 16.384-16.384 33.451-21.163 51.883-2.048 8.192-9.557 12.971-17.749 12.971h-47.104c-1.365 0-2.731 1.365-2.731 2.731v90.795c0 1.365 1.365 2.731 2.731 2.731h47.104c8.192 0 15.019 5.461 17.749 13.653 4.779 18.432 12.288 35.499 21.163 51.883 4.096 6.827 2.731 15.701-2.731 21.845l-33.451 33.451c-1.365 1.365-1.365 2.731 0 3.413l64.171 63.488h3.413l33.451-33.451c5.461-5.461 15.019-6.827 21.845-2.731 16.384 8.875 33.451 16.384 51.883 21.163 8.192 2.048 12.971 9.557 12.971 17.749v47.104c0 1.365 1.365 2.731 2.731 2.731h90.112c1.365 0 2.731-1.365 2.731-2.731v-47.104c0-8.192 5.461-15.019 13.653-17.749 18.432-4.779 35.499-12.288 51.883-21.163 6.827-4.096 15.701-2.731 21.845 2.731l33.451 33.451c1.365 1.365 2.731 1.365 3.413 0l63.488-63.488c0.683-0.683 0.683-2.731 0-3.413l-33.451-33.451c-5.461-5.461-6.827-15.019-2.731-21.845 8.875-16.384 16.384-33.451 21.163-51.883 2.048-7.509 9.557-12.971 17.749-12.971h47.104c1.365 0 2.731-1.365 2.731-2.731v-90.795z" />
<glyph unicode="&#xe93e;" glyph-name="Test-Optimization" d="M172.169 380.753c-4.132-28.745-48.070-22.507-43.889 6.421 9.485 64.973 35.923 124.574 74.652 174.125l26.36-38.654c-29.388-41.216-49.483-89.545-57.123-141.892zM427.136 420.838c8.678 8.704 18.564 15.287 29.137 20.015l-154.54 105.483 105.471-154.541c4.642 10.573 11.273 20.412 19.932 29.043zM536.009 440.077c9.975-4.621 19.345-11.042 27.593-19.26 37.594-37.594 37.427-98.598-0.051-136.23-37.171-37.175-101.222-35.281-136.461-0.051-8.314 8.316-14.782 17.83-19.443 28.015l-208.616 305.689c-13.723 20.297 10.85 44.562 30.772 30.801l306.207-208.963zM458.492 389.478c-20.343-20.335-20.361-53.218-0.047-73.566 20.395-20.382 53.201-20.591 73.702-0.085 20.254 18.867 19.187 54.519 0 73.702-20.386 20.361-53.269 20.322-73.655-0.051zM374.328 172.8c-29.186 0-29.186 44.361 0 44.361h241.962c29.158 0 29.158-44.361 0-44.361h-241.962zM290.72 642.389c58.689 38.844 129.121 61.611 204.58 61.611 92.399 0 177.289-33.991 242.261-90.124 65.83-56.825 111.59-136.581 124.757-226.702 4.198-28.928-39.765-35.166-43.9-6.421-11.588 79.411-51.806 149.632-109.862 199.709-57.054 49.3-131.686 79.178-213.257 79.178-60.083 0-116.494-16.183-164.756-44.495l-39.824 27.245z" />
<glyph unicode="&#xe93f;" glyph-name="Compliance" d="M281.214 648.637h-35.174c-12.203 0-21.535-9.332-21.535-21.535s9.332-21.536 21.535-21.536h86.859c12.204 0 21.536 9.332 21.536 21.536v86.859c0 12.203-9.332 21.535-21.536 21.535s-21.535-9.332-21.535-21.535v-35.174l-104.087 104.087c-8.614 8.614-22.253 8.614-30.149 0-8.614-8.614-8.614-22.253 0-30.149l104.087-104.087zM491.541 436.156l64.606 64.606c7.898 8.614 21.534 8.614 29.431-0.717 8.614-7.898 8.614-21.538 0-30.153l-79.68-79.68c-4.309-4.305-9.331-6.46-15.074-6.46-5.026 0-10.769 2.155-15.074 6.46l-39.484 39.484c-8.614 8.614-8.614 22.251 0 30.865s22.255 8.614 30.869 0l24.405-24.405zM332.181 448.358c0 99.063 80.398 179.461 179.461 179.461s179.46-80.398 179.46-179.461c0-99.063-80.397-179.46-179.46-179.46s-179.461 80.397-179.461 179.46zM375.252 448.358c0-75.375 61.015-136.388 136.39-136.388s136.388 61.013 136.388 136.388c0 75.375-61.013 136.39-136.388 136.39s-136.39-61.015-136.39-136.39zM742.067 248.081l104.090-104.085c8.61-7.898 8.61-21.538 0-30.153-4.309-4.305-9.335-6.46-15.078-6.46-5.022 0-10.765 2.155-15.074 6.46l-104.085 104.090v-35.174c0-12.203-9.331-21.534-21.534-21.534-12.207 0-21.538 9.331-21.538 21.534v86.857c0 12.207 9.331 21.538 21.538 21.538h86.857c12.203 0 21.534-9.331 21.534-21.538 0-12.203-9.331-21.534-21.534-21.534h-35.174zM690.385 604.848h86.857c12.203 0 21.534 9.332 21.534 21.535s-9.331 21.535-21.534 21.535h-35.174l104.090 104.805c8.61 8.614 8.61 22.253 0 30.149-8.614 8.614-22.255 8.614-30.153 0l-104.085-104.087v35.174c0 12.203-9.331 21.535-21.534 21.535-12.207 0-21.538-9.332-21.538-21.535v-86.859c-0.717-12.204 9.331-22.253 21.538-22.253zM246.040 291.87h86.859c12.204 0 22.253-10.048 21.536-22.255v-86.857c0-12.203-9.332-21.534-21.536-21.534s-21.535 9.331-21.535 21.534v34.458l-104.087-104.090c-4.307-4.305-10.050-6.46-15.075-6.46s-10.767 2.155-15.075 6.46c-8.614 8.614-8.614 22.255 0 30.869l104.087 104.802h-35.174c-12.203 0-21.535 9.335-21.535 21.538s9.332 21.534 21.535 21.534z" />
<glyph unicode="&#xe940;" glyph-name="Dashboard" d="M420.966 789.333c37.683 0 68.267-30.584 68.267-68.268v-182.031c0-37.683-30.583-68.267-68.267-68.267h-182.031c-37.684 0-68.268 30.583-68.268 68.267v182.031c0 37.684 30.584 68.268 68.268 68.268h182.031zM443.742 539.034v182.031c0 12.561-10.214 22.774-22.775 22.774h-182.031c-12.561 0-22.774-10.213-22.774-22.774v-182.031c0-12.561 10.213-22.775 22.774-22.775h182.031c12.561 0 22.775 10.214 22.775 22.775zM420.966 425.233c37.683 0 68.267-30.583 68.267-68.267v-182.033c0-37.683-30.583-68.267-68.267-68.267h-182.031c-37.684 0-68.268 30.583-68.268 68.267v182.033c0 37.683 30.584 68.267 68.268 68.267h182.031zM443.742 174.933v182.033c0 12.561-10.214 22.775-22.775 22.775h-182.031c-12.561 0-22.774-10.214-22.774-22.775v-182.033c0-12.561 10.213-22.771 22.774-22.771h182.031c12.561 0 22.775 10.21 22.775 22.771zM853.333 721.065c0 37.684-30.583 68.268-68.267 68.268h-182.033c-37.683 0-68.267-30.584-68.267-68.268v-182.031c0-37.683 30.583-68.267 68.267-68.267h182.033c37.683 0 68.267 30.583 68.267 68.267v182.031zM807.838 721.065v-182.031c0-12.561-10.21-22.775-22.771-22.775h-182.033c-12.561 0-22.775 10.214-22.775 22.775v182.031c0 12.561 10.214 22.774 22.775 22.774h182.033c12.561 0 22.771-10.213 22.771-22.774zM785.067 425.233c37.683 0 68.267-30.583 68.267-68.267v-182.033c0-37.683-30.583-68.267-68.267-68.267h-182.033c-37.683 0-68.267 30.583-68.267 68.267v182.033c0 37.683 30.583 68.267 68.267 68.267h182.033zM807.838 174.933v182.033c0 12.561-10.21 22.775-22.771 22.775h-182.033c-12.561 0-22.775-10.214-22.775-22.775v-182.033c0-12.561 10.214-22.771 22.775-22.771h182.033c12.561 0 22.771 10.21 22.771 22.771z" />
<glyph unicode="&#xe941;" glyph-name="Design" d="M683.307 444.011c54.707 54.908 95.59 95.94 95.59 95.94 1.075 1.079 1.899 2.939 2.607 4.249l47.902 48.194c25.579 25.577 25.579 66.436 0 92.013l-85.534 85.536c-12.343 12.343-28.22 19.392-45.85 19.392s-33.515-7.049-45.858-19.392l-52.019-53.787c-1.143-1.142-1.916-2.292-2.569-3.447 0 0-38.912-38.916-91.477-91.484l-154.452 154.444c-6.172 6.171-16.745 6.171-22.93 0l-153.427-153.42c-6.164-6.171-6.164-16.752 0-22.93l154.458-154.453c-57.103-57.092-100.88-100.86-101.834-101.824-2.793-2.803-5.44-6.98-5.816-9.852-0.383-2.867-22.965-176.077-22.965-176.077-0.884-5.295 1.226-16.098 4.757-19.614 3.517-3.529 7.39-9.907 11.806-9.907 0.878 0 1.755 0 2.647 0 0 0 168.215 24.038 173.355 24.734 5.134 0.683 9.132 8.533 13.478 12.873 1.469 1.472 45.127 45.129 102.104 102.323l156.292-156.373c2.654-2.654 7.057-4.48 11.465-4.48s7.94 0.858 11.465 4.395l153.429 153.429c6.17 6.161 6.17 16.742 0 22.908l-156.625 156.612zM677.739 746.127c5.286 6.178 13.222 9.703 22.046 9.703 8.819 0 16.755-3.517 22.933-9.703l85.525-85.528c12.335-12.343 12.335-32.626 0-44.969l-41.442-41.444-63.91 63.908c-0.486 0.689-0.986 1.372-1.591 1.971-0.606 0.613-1.289 1.108-1.971 1.595l-63.023 63.023 41.434 41.444zM209.685 610.782l130.497 130.504 18.514-18.528-33.504-33.511c-6.164-6.171-6.164-16.745 0-22.923 2.647-2.647 7.056-4.416 11.465-4.416 4.416 0 7.948 0.884 11.465 4.416l33.511 33.504 17.643-17.636-31.755-35.273c-6.171-6.164-6.171-16.752 0-22.923 2.64-2.64 7.049-4.402 11.465-4.402 4.409 0 7.933 0.871 11.465 4.402l33.511 33.51 59.212-59.213c-41.374-41.375-88.272-88.273-130.496-130.496l-142.993 142.985zM612.049 681.327l53.786-53.787-349.62-349.635-53.794 53.807 349.629 349.615zM235.081 172.979l16.766 123.46 106.696-106.705-123.462-16.755zM392.931 201.203l-53.794 53.794 349.614 349.606 53.794-53.787-349.614-349.613zM675.038 145.429l-144.875 144.866c42.031 42.189 88.742 89.079 130.261 130.748l61.35-61.359-34.394-34.394c-6.178-6.165-6.178-16.747 0-22.925 2.645-2.637 7.057-4.407 11.465-4.407s7.932 0.883 11.465 4.407l34.394 34.398 17.626-17.63-34.389-34.398c-6.17-6.178-6.17-16.755 0-22.921 2.645-2.654 7.061-4.412 11.465-4.412 4.407 0 7.936 0.887 11.465 4.412l34.389 34.394 18.522-18.526-128.742-132.254z" />
<glyph unicode="&#xe942;" glyph-name="Developer" d="M256 682.667c0-58.824 47.854-106.667 106.66-106.667 58.82 0 106.673 47.857 106.673 106.667 0 58.824-47.854 106.667-106.673 106.667-58.806 0.014-106.66-47.843-106.66-106.667zM362.65 746.667c35.26 0 64.017-28.745 64.017-64 0-35.245-28.75-64-64.007-64-35.243 0-63.993 28.741-63.993 64 0 35.268 28.757 64.009 63.983 64zM735.488 231.13h150.793c10.803 0 19.567-8.764 19.567-19.567 0-6.805-3.477-12.8-5.513-16.307-1.195-2.057-1.89-3.255-1.088-3.255h-781.376c-23.777 0-32.538 8.759-32.538 19.563s8.761 19.567 19.565 19.558h565.314c7.578 0 14.477 4.373 17.707 11.23l73.545 170.675c0.119 0.256-0.064 0.546-0.346 0.546h-281.783c-7.829 0-14.908-4.668-17.988-11.857l-49.594-115.738c-3.082-7.194-10.156-11.861-17.987-11.861h-157.94c-10.804 0-19.565 8.759-19.565 19.563v236.079c0.784 12.072 10.74 21.672 23.002 21.672h60.636c10.803 0 19.564-8.761 19.564-19.564s-8.761-19.567-19.564-19.567h-44.655v-179.482c0-10.803 8.762-19.563 19.565-19.563h91.478c7.831 0 14.906 4.668 17.987 11.861l47.88 111.723c4.13 9.63 13.602 15.876 24.077 15.876v59.584h-44.652c-10.804 0-19.565 8.764-19.565 19.567s8.761 19.564 19.565 19.564h60.635c12.783 0 23.147-10.366 23.147-23.148v-75.567h297.212c14.349 0 23.821-14.925 17.702-27.908l-80.299-184.973c-1.916-4.045 1.037-8.704 5.513-8.704z" />
<glyph unicode="&#xe943;" glyph-name="Document-Scan" d="M387.003 707.686h-134.69v-134.69c-0.018-5.166-2.083-10.115-5.743-13.762s-8.615-5.694-13.782-5.694c-5.155 0.018-10.093 2.074-13.737 5.719s-5.701 8.583-5.719 13.737v154.214c0.294 4.97 2.476 9.639 6.099 13.054l0.157 0.146 0.146 0.157c3.415 3.623 8.084 5.804 13.054 6.099h154.214c4.97-0.294 9.639-2.476 13.054-6.099s5.316-8.413 5.316-13.391c0-4.978-1.902-9.769-5.316-13.391s-8.084-5.804-13.054-6.099zM219.052 176.35c3.643-3.644 8.578-5.696 13.73-5.717h154.222c4.97 0.294 9.639 2.475 13.054 6.097s5.316 8.414 5.316 13.393c0 4.979-1.902 9.771-5.316 13.393s-8.084 5.803-13.054 6.097h-134.69v134.69c-0.294 4.971-2.476 9.638-6.099 13.056-3.623 3.413-8.413 5.316-13.391 5.316s-9.769-1.903-13.391-5.316c-3.623-3.418-5.804-8.085-6.099-13.056v-154.214c0.018-5.154 2.074-10.091 5.719-13.739zM756.13 559.235c3.661-3.647 8.614-5.694 13.781-5.694 5.154 0.018 10.095 2.074 13.739 5.719s5.7 8.583 5.717 13.737v154.214c-0.294 4.97-2.475 9.639-6.097 13.054l-0.162 0.15-0.141 0.153c-3.418 3.623-8.085 5.804-13.056 6.099h-154.214c-4.971-0.294-9.638-2.476-13.056-6.099-3.413-3.623-5.316-8.413-5.316-13.391s1.903-9.769 5.316-13.391c3.418-3.623 8.085-5.804 13.056-6.099h134.69v-134.69c0.017-5.166 2.082-10.115 5.743-13.762zM783.65 176.35c-3.644-3.644-8.585-5.7-13.734-5.717h-154.219c-4.971 0.294-9.638 2.475-13.056 6.097-3.413 3.622-5.316 8.414-5.316 13.393s1.903 9.771 5.316 13.393c3.418 3.622 8.085 5.803 13.056 6.097h134.69v134.69c0.294 4.971 2.475 9.638 6.097 13.056 3.622 3.413 8.414 5.316 13.393 5.316s9.771-1.903 13.393-5.316c3.622-3.418 5.803-8.085 6.097-13.056v-154.214c-0.017-5.154-2.074-10.091-5.717-13.739zM232.789 438.17h537.122c4.817 0 9.434 2.159 12.838 5.999 3.409 3.84 5.321 9.050 5.321 14.481s-1.911 10.641-5.321 14.481c-3.405 3.84-8.021 5.999-12.838 5.999h-537.122c-4.816 0-9.435-2.159-12.841-5.999s-5.318-9.050-5.318-14.481c0-5.431 1.913-10.641 5.318-14.481s8.024-5.999 12.841-5.999z" />
<glyph unicode="&#xe944;" glyph-name="History" d="M485.171 788.277c68.915 5.433 137.852-10.186 197.696-44.789 59.84-34.604 107.767-86.562 137.434-148.998s39.676-132.41 28.706-200.659c-10.97-68.254-42.406-131.563-90.146-181.559-47.74-49.993-109.534-84.314-177.203-98.419-67.674-14.11-138.031-7.334-201.772 19.418-63.739 26.756-117.852 72.235-155.179 130.419-37.327 58.18-56.109 126.327-53.86 195.418 0.126 4.198 1.079 8.337 2.803 12.173 1.725 3.831 4.187 7.287 7.248 10.172 3.060 2.88 6.659 5.133 10.589 6.626 3.931 1.489 8.116 2.193 12.319 2.069 4.202-0.128 8.338-1.079 12.173-2.803 3.834-1.728 7.291-4.19 10.173-7.249 2.882-3.063 5.133-6.66 6.625-10.59s2.194-8.119 2.068-12.318c-2.162-65.404 18.871-129.463 59.382-180.855 40.51-51.388 97.888-86.801 161.988-99.968 64.098-13.171 130.786-3.251 188.279 28.006 57.489 31.253 102.076 81.835 125.875 142.788 23.799 60.958 25.276 128.367 4.169 190.307-21.103 61.941-63.428 114.424-119.497 148.169-56.064 33.745-122.257 46.578-186.871 36.23s-123.487-43.21-166.211-92.776l-8.704-10.581h101.504l4.352-0.341c7.659-1.054 14.678-4.845 19.759-10.673s7.88-13.297 7.88-21.029c0-7.731-2.799-15.201-7.88-21.029s-12.099-9.619-19.759-10.673l-4.352-0.299h-170.666l-4.352 0.299c-6.919 0.95-13.336 4.137-18.275 9.075s-8.125 11.356-9.075 18.274l-0.299 4.352v170.667l0.299 4.352c0.95 6.918 4.137 13.336 9.075 18.274s11.356 8.125 18.275 9.075l4.352 0.299 4.352-0.299c6.918-0.95 13.336-4.137 18.274-9.075s8.125-11.356 9.075-18.274l0.299-4.352-0.043-83.328c58.562 66.519 140.761 107.616 229.119 114.475zM501.299 618.507l4.352-0.299c6.921-0.95 13.338-4.137 18.274-9.075 4.941-4.938 8.128-11.356 9.075-18.274l0.299-4.352v-138.451l74.667-0.043 4.352-0.299c7.693-1.020 14.754-4.8 19.866-10.637 5.111-5.833 7.932-13.329 7.932-21.086 0-7.761-2.82-15.253-7.932-21.090s-12.173-9.617-19.866-10.633l-4.352-0.256h-106.667l-4.352 0.256c-6.925 0.951-13.346 4.143-18.283 9.088-4.941 4.949-8.124 11.375-9.067 18.304l-0.299 4.352v170.494l0.299 4.352c0.951 6.918 4.139 13.336 9.075 18.274 4.941 4.938 11.358 8.125 18.274 9.075l4.352 0.299z" />
<glyph unicode="&#xe945;" glyph-name="Plugin" d="M829.956 257.054c6.647 0 13.026 2.641 17.724 7.339 4.702 4.702 7.343 11.076 7.343 17.724s-2.641 13.026-7.343 17.724c-4.698 4.702-11.076 7.343-17.724 7.343h-50.125v25.062c0 6.647-2.641 13.022-7.343 17.724s-11.076 7.343-17.724 7.343h-50.129c-19.934-0.021-39.049-7.953-53.146-22.050s-22.025-33.207-22.046-53.146v-25.062h-275.71c-13.295 0-26.045 5.282-35.446 14.682s-14.682 22.153-14.682 35.447c0 13.295 5.281 26.044 14.682 35.447 9.401 9.399 22.151 14.682 35.446 14.682h25.065c19.936 0.021 39.049 7.949 53.146 22.046s22.025 33.212 22.046 53.146v25.067h95.168c33.741-0.563 66.641 10.53 93.15 31.415 26.505 20.881 44.992 50.272 52.343 83.207 5.914 28.251 3.217 57.639-7.74 84.342s-29.67 49.506-53.722 65.461c-24.055 15.955-52.339 24.33-81.203 24.042-28.86-0.288-56.973-9.226-80.7-25.659-22.229 30.857-54.381 53.143-91.076 63.13s-75.706 7.069-110.507-8.267c-34.801-15.335-63.279-42.157-80.669-75.977s-22.638-72.588-14.865-109.814c16.034-80.112 90.027-131.88 188.497-131.88h41.196v-25.067c-0.006-6.643-2.649-13.018-7.348-17.715-4.699-4.702-11.071-7.343-17.716-7.347h-25.065c-26.59 0-52.091-10.564-70.893-29.367-18.802-18.799-29.364-44.301-29.364-70.891s10.563-52.092 29.364-70.895c18.802-18.799 44.303-29.363 70.893-29.363h275.71v-25.067c0.021-19.934 7.949-39.049 22.046-53.146 14.097-14.093 33.212-22.025 53.146-22.046h50.129c6.647 0 13.022 2.641 17.724 7.343 4.702 4.698 7.343 11.072 7.343 17.719v25.067h50.125c6.647 0 13.026 2.641 17.724 7.343 4.702 4.698 7.343 11.072 7.343 17.719s-2.641 13.026-7.343 17.724c-4.698 4.702-11.076 7.343-17.724 7.343h-50.125v50.129h50.125zM223.322 599.29c-5.973 27.947-1.403 57.115 12.831 81.896s37.127 43.424 64.277 52.346c27.15 8.921 56.639 7.49 82.798-4.018s47.138-32.281 58.905-58.324c1.724-3.802 4.369-7.113 7.693-9.634 3.328-2.52 7.232-4.171 11.358-4.8s8.341-0.219 12.271 1.195c3.925 1.414 7.437 3.785 10.214 6.9 13.892 15.362 32.465 25.713 52.838 29.447s41.408 0.645 59.844-8.79c18.436-9.435 33.25-24.689 42.138-43.397s11.354-39.825 7.023-60.079c-5.065-21.581-17.412-40.757-34.961-54.298-17.553-13.538-39.232-20.617-61.393-20.036h-186.479c-74.641 0-128.051 35.088-139.358 91.591zM679.573 181.858v100.258c0.004 6.647 2.645 13.018 7.347 17.719 4.698 4.698 11.072 7.339 17.715 7.347h25.067v-150.387h-25.067c-6.643 0.004-13.018 2.65-17.715 7.347-4.702 4.698-7.343 11.072-7.347 17.715z" />
<glyph unicode="&#xe946;" glyph-name="Web-Scan" d="M241.661 727.956c0 12 9.667 21.333 21.333 21.333s21-9.333 21.333-21.333c0-12-9.333-21.333-21.333-21.333s-21.333 9.667-21.333 21.333zM302.598 727.956c0 12 9.667 21.333 21.333 21.333s21-9.333 21.333-21.333c0-12-9.333-21.333-21.333-21.333s-21.333 9.667-21.333 21.333zM384.871 749.289c-11.667 0-21.333-9.333-21.333-21.333 0-11.666 9.333-21.333 21.333-21.333s21.333 9.333 21.333 21.333c0 12-9.667 21.333-21.333 21.333zM188.724 832h603.579c33.566 0 60.723-34.042 61.030-75.65v-489.077c0-41.609-27.157-75.273-60.723-75.273-8.546 0-15.258 8.32-15.258 18.914 0 10.59 6.711 18.91 15.258 18.91 16.781 0 30.208 16.644 30.208 37.449v369.55h-664.303v-369.175c0-20.8 13.426-37.444 30.209-37.444 8.544 0 15.258-8.32 15.258-18.914 0-10.59-6.713-18.91-15.258-18.91-33.566 0-60.724 33.664-60.724 75.268v489.080c0 41.607 27.158 75.272 60.724 75.272zM158.515 756.35v-81.702h664.303v81.702c0 20.804-13.427 37.447-30.208 37.447h-603.886c-16.783 0-30.209-16.643-30.209-37.447zM591.3 243.29l102.682-102.682c6.246-6.251 6.246-16.38 0-22.626-6.251-6.251-16.38-6.251-22.63 0l-104.563 104.563c-27.631-19.255-61.222-30.545-97.455-30.545-94.257 0-170.667 76.412-170.667 170.667s76.41 170.667 170.667 170.667c94.255 0 170.667-76.412 170.667-170.667 0-46.468-18.573-88.602-48.7-119.377zM469.333 224c76.582 0 138.667 62.084 138.667 138.667s-62.084 138.667-138.667 138.667c-76.584 0-138.667-62.084-138.667-138.667s62.083-138.667 138.667-138.667z" />
<glyph unicode="&#xe947;" glyph-name="Accessible" d="M573.227 550.755h80.802c15.556 0 30.473-6.179 41.472-17.179s17.178-25.92 17.178-41.472c0-15.556-6.178-30.477-17.178-41.476s-25.916-17.178-41.472-17.178h-44.851v-179.405c-0.013-11.985-3.49-23.71-10.014-33.758-6.528-10.052-15.821-18.001-26.761-22.891-10.944-4.885-23.066-6.502-34.906-4.655s-22.891 7.083-31.825 15.070c-8.93-7.987-19.985-13.222-31.825-15.070s-23.962-0.23-34.901 4.655c-10.944 4.89-20.237 12.838-26.762 22.891-6.525 10.048-10.003 21.773-10.014 33.758v179.405h-44.852c-15.555 0-30.474 6.178-41.473 17.178s-17.179 25.92-17.179 41.476c0 15.552 6.179 30.473 17.179 41.472s25.917 17.179 41.473 17.179h80.873c-5.943 11.571-8.815 24.474-8.333 37.473 0.478 12.999 4.292 25.656 11.068 36.758 6.78 11.101 16.299 20.275 27.639 26.64 11.345 6.365 24.137 9.708 37.141 9.708 13.009 0 25.796-3.343 37.141-9.708s20.864-15.538 27.639-26.64c6.78-11.102 10.594-23.759 11.072-36.758s-2.389-25.903-8.333-37.473zM476.988 604.424c-3.793-5.674-5.815-12.344-5.815-19.168 0-9.15 3.635-17.926 10.103-24.396 6.473-6.47 15.249-10.105 24.397-10.105 6.827 0 13.495 2.024 19.17 5.815 5.67 3.791 10.095 9.179 12.706 15.484s3.294 13.241 1.963 19.934c-1.331 6.692-4.617 12.84-9.442 17.665s-10.974 8.111-17.664 9.443c-6.694 1.331-13.632 0.648-19.934-1.964-6.306-2.611-11.695-7.034-15.484-12.707zM567.774 474.854h86.255c4.574 0 8.964 1.818 12.198 5.052s5.052 7.62 5.052 12.198c0 4.574-1.818 8.96-5.052 12.198-3.234 3.234-7.625 5.052-12.198 5.052h-296.71c-4.575 0-8.963-1.818-12.198-5.052-3.235-3.238-5.053-7.625-5.053-12.198 0-4.578 1.818-8.964 5.053-12.198s7.623-5.052 12.198-5.052h86.253v-220.809c0-5.491 2.18-10.756 6.063-14.639s9.148-6.063 14.639-6.063c5.491 0 10.756 2.18 14.635 6.063 3.883 3.883 6.063 9.148 6.063 14.639v110.404h41.404v-110.404c0-5.491 2.18-10.756 6.063-14.639s9.148-6.063 14.639-6.063c5.487 0 10.752 2.18 14.635 6.063s6.063 9.148 6.063 14.639v220.809zM896 448c0 212.077-171.921 384-384 384-212.077 0-384-171.923-384-384 0-212.079 171.923-384 384-384 212.079 0 384 171.921 384 384zM853.333 448c0-188.514-152.819-341.333-341.333-341.333s-341.333 152.819-341.333 341.333c0 188.513 152.82 341.333 341.333 341.333s341.333-152.82 341.333-341.333z" />
<glyph unicode="&#xe948;" glyph-name="Remediation" d="M735.74 789.333h-482.862c-69.099 0-124.878-55.779-124.878-124.878v-466.213c0-50.782 40.794-91.575 91.577-91.575h549.464c50.782 0 91.575 40.794 91.575 91.575v466.213c0 69.099-55.778 124.878-124.877 124.878zM252.878 739.382h482.862c41.626 0 74.927-33.301 74.927-74.927v-27.473h-632.716v27.473c0 41.626 33.301 74.927 74.927 74.927zM769.041 156.617h-549.464c-23.311 0-41.626 18.317-41.626 41.626v388.789h632.716v-388.789c0-23.309-18.317-41.626-41.626-41.626zM367.766 495.454l-124.878-99.904c-10.823-8.324-12.488-24.141-4.163-34.965 0.832-1.664 2.498-2.496 4.163-4.16l124.878-99.904 31.636 39.13-100.735 80.755 99.902 79.919-30.803 39.13zM615.023 495.454l-31.633-39.13 100.732-80.755-100.732-80.751 31.633-39.13 124.881 99.9c10.82 8.329 12.484 24.145 4.16 34.97-0.832 1.664-2.496 2.496-4.16 4.16l-124.881 100.736zM466.001 194.679l88.777 346.816-48.393 12.388-88.778-346.813 48.394-12.39z" />
<glyph unicode="&#xe949;" glyph-name="Request-History" d="M618.765 553.077c-29.918 17.302-64.388 25.111-98.846 22.394-44.177-3.429-85.278-23.977-114.559-57.238l0.021 41.665-0.149 2.176c-0.475 3.459-2.068 6.668-4.538 9.137s-5.678 4.063-9.137 4.538l-2.176 0.149-2.176-0.149c-3.459-0.475-6.668-2.068-9.137-4.538s-4.063-5.678-4.538-9.137l-0.149-2.176v-85.334l0.149-2.176c0.475-3.46 2.068-6.669 4.538-9.135 2.469-2.47 5.678-4.062 9.137-4.54l2.176-0.149h85.332l2.176 0.149c3.831 0.529 7.339 2.423 9.882 5.338 2.539 2.914 3.938 6.647 3.938 10.513s-1.399 7.603-3.938 10.517c-2.543 2.91-6.050 4.809-9.882 5.333l-2.176 0.171h-50.751l4.351 5.291c21.363 24.785 50.799 41.215 83.106 46.389s65.404-1.242 93.436-18.114c28.032-16.875 49.199-43.115 59.75-74.086s9.813-64.674-2.086-95.151c-11.9-30.481-34.193-55.77-62.938-71.398-28.745-15.625-62.093-20.587-94.14-14.003-32.051 6.588-60.74 24.29-80.994 49.988-20.255 25.694-30.772 57.724-29.691 90.423 0.063 2.103-0.288 4.194-1.034 6.161-0.746 1.963-1.872 3.763-3.313 5.295s-3.17 2.761-5.087 3.622c-1.917 0.862-3.985 1.34-6.086 1.404s-4.194-0.29-6.159-1.037c-1.966-0.742-3.765-1.869-5.295-3.311s-2.762-3.17-3.624-5.086c-0.862-1.92-1.338-3.985-1.402-6.089-1.125-34.543 8.266-68.617 26.93-97.707s45.722-51.831 77.59-65.207c31.868-13.38 67.051-16.764 100.885-9.711s64.734 24.213 88.602 49.212c23.872 24.994 39.586 56.653 45.073 90.778s0.482 69.111-14.353 100.331c-14.835 31.219-38.797 57.196-68.719 74.498zM530.159 490.436l-2.176 0.149-2.176-0.149c-3.46-0.474-6.669-2.069-9.135-4.535-2.47-2.47-4.066-5.679-4.54-9.139l-0.149-2.176v-85.248l0.149-2.176c0.469-3.46 2.065-6.677 4.531-9.148 2.47-2.475 5.683-4.070 9.143-4.548l2.176-0.128h53.333l2.176 0.128c3.849 0.512 7.377 2.402 9.933 5.316 2.556 2.918 3.968 6.669 3.968 10.547s-1.412 7.625-3.968 10.543c-2.556 2.918-6.084 4.809-9.933 5.316l-2.176 0.149-37.333 0.021v69.227l-0.149 2.176c-0.474 3.46-2.069 6.669-4.535 9.139-2.47 2.466-5.679 4.062-9.139 4.535zM794.948 663.579c0 4.961-2.010 9.452-5.261 12.703s-7.744 5.262-12.706 5.262h-17.963v89.825c0 9.922-8.043 17.965-17.967 17.965h-413.192c-39.682 0-71.86-32.163-71.86-71.86v-538.948c0-39.697 32.177-71.859 71.86-71.859h449.122c9.924 0 17.967 8.043 17.967 17.967v538.945zM327.86 645.614h431.159v-503.018h-431.159c-19.843 0-35.93 16.081-35.93 35.93v476.701c10.57-6.114 22.842-9.612 35.93-9.612zM723.089 753.403v-71.86h-395.229c-19.843 0-35.93 16.080-35.93 35.93s16.087 35.93 35.93 35.93h395.229z" />
<glyph unicode="&#xe94a;" glyph-name="Rescan" d="M620.779 789.333h-209.831c-108.508 0-197.614-88.387-197.614-197.614v-172.464c0-15.808 12.935-28.745 28.744-28.745s28.744 12.937 28.744 28.745v172.464c0 76.89 62.518 139.408 139.408 139.408h209.112c78.327 0 140.843-62.518 140.843-139.408v-150.904c0-76.89-62.515-139.409-139.405-139.409h-259.415l86.952 86.95c11.494 11.499 11.494 29.461 0 40.96-11.499 11.499-29.464 11.499-40.961 0l-136.533-136.533c-11.498-11.499-11.498-29.461 0-40.96l136.533-136.533c5.749-5.747 12.935-8.623 20.84-8.623 7.185 0 15.091 2.876 20.838 8.623 11.499 11.499 11.499 29.461 0 40.96l-87.668 86.95h259.415c109.227 0 197.615 88.388 197.615 197.615v150.904c0 109.227-89.109 197.614-197.615 197.614z" />
<glyph unicode="&#xe94b;" glyph-name="View-Document" d="M476.446 263.108c-68.73 0-124.446 55.714-124.446 124.446 0 68.727 55.716 124.446 124.446 124.446 68.732 0 124.446-55.718 124.446-124.446 0-26.662-8.384-51.366-22.66-71.616l42.189-42.189c8.333-8.333 8.333-21.841 0-30.17-8.329-8.333-21.837-8.333-30.17 0l-42.189 42.189c-20.25-14.276-44.954-22.66-71.616-22.66zM476.446 469.333c-45.167 0-81.779-36.612-81.779-81.779s36.612-81.779 81.779-81.779c21.837 0 41.677 8.559 56.346 22.507 0.435 0.529 0.9 1.041 1.391 1.536 0.495 0.491 1.007 0.956 1.536 1.391 13.948 14.669 22.507 34.509 22.507 56.346 0 45.167-36.612 81.779-81.779 81.779zM768 213.333v341.165l-231.812 234.643c-0.939 0.127-1.89 0.192-2.854 0.192h-213.333c-58.91 0-106.667-47.756-106.667-106.667v-469.333c0-58.91 47.756-106.667 106.667-106.667h341.333c58.91 0 106.667 47.757 106.667 106.667zM512 640c0-58.91 47.757-106.667 106.667-106.667h106.667v-320c0-35.349-28.651-64-64-64h-341.333c-35.346 0-64 28.651-64 64v469.333c0 35.346 28.654 64 64 64h192v-106.667zM554.667 716.497l140.497-140.497h-76.497c-35.349 0-64 28.654-64 64v76.497z" />
<glyph unicode="&#xe94c;" glyph-name="Last_Active" d="M204.8 960c-113.108 0-204.8-91.692-204.8-204.8v-614.4c0-113.106 91.692-204.8 204.8-204.8h614.4c113.106 0 204.8 91.694 204.8 204.8v614.4c0 113.108-91.694 204.8-204.8 204.8h-614.4zM306.476 653.523c10.414 10.414 27.298 10.414 37.712 0l184.958-184.96c10.414-10.414 10.414-27.301 0-37.715l-184.958-184.96c-10.414-10.414-27.298-10.414-37.712 0s-10.414 27.3 0 37.714l166.104 166.105-166.104 166.104c-10.414 10.414-10.414 27.298 0 37.712zM519.808 653.523c10.414 10.414 27.3 10.414 37.714 0l184.96-184.96c10.414-10.414 10.414-27.301 0-37.715l-184.96-184.96c-10.414-10.414-27.3-10.414-37.714 0s-10.413 27.3 0 37.714l166.103 166.105-166.103 166.104c-10.413 10.414-10.413 27.298 0 37.712z" />
<glyph unicode="&#xe94d;" glyph-name="First_Active" d="M204.8 960c-113.108 0-204.8-91.692-204.8-204.8v-614.4c0-113.106 91.692-204.8 204.8-204.8h614.4c113.106 0 204.8 91.694 204.8 204.8v614.4c0 113.108-91.694 204.8-204.8 204.8h-614.4zM529.147 245.888c-10.414-10.409-27.297-10.409-37.711 0l-184.96 184.96c-10.414 10.414-10.414 27.301 0 37.715l184.96 184.96c10.414 10.414 27.297 10.414 37.711 0s10.414-27.298 0-37.712l-166.102-166.104 166.102-166.105c10.414-10.414 10.414-27.3 0-37.714zM742.482 245.888c-10.414-10.409-27.3-10.409-37.714 0l-184.96 184.96c-10.413 10.414-10.413 27.301 0 37.715l184.96 184.96c10.414 10.414 27.3 10.414 37.714 0s10.414-27.298 0-37.712l-166.103-166.104 166.103-166.105c10.414-10.414 10.414-27.3 0-37.714z" />
<glyph unicode="&#xe94e;" glyph-name="Next_Active" d="M819.2 960c113.106 0 204.8-91.692 204.8-204.8v-614.4c0-113.106-91.694-204.8-204.8-204.8h-614.4c-113.108 0-204.8 91.694-204.8 204.8v614.4c0 113.108 91.692 204.8 204.8 204.8h614.4zM392.452 245.888c10.414-10.409 27.298-10.409 37.712 0l184.958 184.96c10.414 10.414 10.414 27.301 0 37.715l-184.958 184.96c-10.414 10.414-27.298 10.414-37.712 0s-10.414-27.298 0-37.712l166.105-166.104-166.105-166.105c-10.414-10.414-10.414-27.3 0-37.714z" />
<glyph unicode="&#xe94f;" glyph-name="Previous_Active" d="M204.8 960c-113.108 0-204.8-91.692-204.8-204.8v-614.4c0-113.106 91.692-204.8 204.8-204.8h614.4c113.106 0 204.8 91.694 204.8 204.8v614.4c0 113.108-91.694 204.8-204.8 204.8h-614.4zM631.547 245.888c-10.414-10.409-27.295-10.409-37.709 0l-184.962 184.96c-10.414 10.414-10.414 27.301 0 37.715l184.962 184.96c10.414 10.414 27.295 10.414 37.709 0s10.414-27.298 0-37.712l-166.102-166.104 166.102-166.105c10.414-10.414 10.414-27.3 0-37.714z" />
<glyph unicode="&#xe950;" glyph-name="Plus_Filled" d="M512 106.667c188.514 0 341.333 152.819 341.333 341.333s-152.819 341.333-341.333 341.333c-188.513 0-341.333-152.82-341.333-341.333s152.82-341.333 341.333-341.333zM490.667 576c0 11.782 9.553 21.333 21.333 21.333s21.333-9.551 21.333-21.333v-106.667h106.667c11.78 0 21.333-9.553 21.333-21.333s-9.553-21.333-21.333-21.333h-106.667v-106.667c0-11.78-9.553-21.333-21.333-21.333s-21.333 9.553-21.333 21.333v106.667h-106.667c-11.782 0-21.333 9.553-21.333 21.333s9.551 21.333 21.333 21.333h106.667v106.667z" />
<glyph unicode="&#xe951;" glyph-name="Business" d="M268.156 789.333c-3.208 0-6.284-1.274-8.553-3.543s-3.543-5.345-3.543-8.553v-658.231c-0.019-1.6 0.28-3.191 0.88-4.672 0.599-1.485 1.487-2.837 2.612-3.972 1.125-1.139 2.465-2.044 3.942-2.658 1.477-0.619 3.061-0.934 4.662-0.934h509.457c3.204 0 6.285 1.271 8.55 3.541 2.27 2.27 3.546 5.346 3.546 8.555v658.272c0 3.208-1.276 6.285-3.546 8.553-2.266 2.269-5.346 3.543-8.55 3.543l-509.457 0.101zM280.252 765.001h485.222v-633.899h-485.141l-0.081 633.899zM522.795 697.164c-2.415-0.012-4.77-0.745-6.767-2.107-1.993-1.361-3.533-3.289-4.425-5.534l-21.773-54.068-58.261-4.032c-2.436-0.141-4.774-1.018-6.707-2.513-1.931-1.496-3.363-3.541-4.11-5.867s-0.771-4.823-0.070-7.163c0.7-2.34 2.092-4.413 3.994-5.947l44.734-37.335-14.272-56.586c-0.649-2.372-0.563-4.881 0.252-7.202 0.815-2.317 2.313-4.335 4.301-5.777 1.988-1.446 4.369-2.253 6.827-2.308 2.453-0.060 4.873 0.631 6.925 1.98l49.472 31.006 49.412-31.006c2.052-1.293 4.446-1.937 6.869-1.852 2.428 0.085 4.77 0.9 6.724 2.334 1.958 1.434 3.439 3.426 4.25 5.713s0.913 4.762 0.299 7.113l-14.11 56.586 44.732 37.416c1.233 1.016 2.253 2.266 3.004 3.679 0.747 1.413 1.207 2.959 1.353 4.551s-0.026 3.196-0.503 4.721c-0.478 1.525-1.25 2.94-2.278 4.164-1.062 1.268-2.368 2.31-3.84 3.061s-3.081 1.199-4.727 1.313l-58.261 4.032-21.675 53.987c-0.9 2.274-2.466 4.221-4.497 5.585s-4.425 2.081-6.869 2.056v0zM522.974 652.389l13.308-33.183c0.832-2.126 2.253-3.971 4.096-5.324 1.839-1.353 4.028-2.156 6.306-2.317l35.558-2.338-27.294-22.922c-1.766-1.456-3.081-3.382-3.793-5.555s-0.798-4.504-0.239-6.723l8.747-34.513-30.238 18.869c-1.933 1.222-4.173 1.87-6.46 1.87s-4.527-0.648-6.464-1.87l-30.238-18.95 8.687 34.594c0.559 2.218 0.478 4.549-0.239 6.723-0.713 2.173-2.027 4.099-3.793 5.555l-27.413 22.922 35.622 2.338c2.291 0.147 4.493 0.943 6.349 2.296s3.29 3.207 4.13 5.344l13.367 33.183zM383.006 402.633c-3.227 0-6.321-1.284-8.603-3.567-2.282-2.278-3.564-5.376-3.564-8.602s1.282-6.319 3.564-8.602c2.281-2.283 5.376-3.563 8.603-3.563h279.757c3.226-0.068 6.345 1.148 8.674 3.383s3.678 5.303 3.742 8.529c0.068 3.226-1.148 6.349-3.383 8.678-2.236 2.325-5.303 3.674-8.529 3.742h-280.26zM664.111 301.73c-0.439 0.047-0.887 0.047-1.331 0h-280.983c-3.221-0.158-6.248-1.587-8.415-3.977s-3.295-5.542-3.137-8.764c0.158-3.221 1.589-6.246 3.978-8.414s5.541-3.294 8.763-3.136h279.777c1.587-0.132 3.187 0.047 4.706 0.533 1.515 0.486 2.923 1.267 4.143 2.295 1.216 1.028 2.219 2.291 2.948 3.708s1.173 2.961 1.306 4.553c0.132 1.587-0.051 3.187-0.533 4.702-0.486 1.519-1.267 2.927-2.295 4.143-1.033 1.22-2.291 2.219-3.708 2.953-1.417 0.73-2.961 1.173-4.553 1.306l-0.666 0.098z" />
<glyph unicode="&#xe952;" glyph-name="Critical" d="M170.658 447.979c0.125 90.492 36.129 177.242 100.113 241.231s150.739 99.993 241.228 100.124c90.496-0.119 177.246-36.118 241.242-100.103 63.991-63.985 100.002-150.735 100.134-241.231-0.132-90.492-36.143-177.242-100.134-241.229-63.996-63.983-150.746-99.985-241.242-100.105-90.482 0.132-177.224 36.134-241.207 100.117-63.983 63.979-99.998 150.711-100.134 241.195zM199.925 447.979c0.097-82.735 33.001-162.057 91.505-220.557 58.504-58.505 137.835-91.422 220.57-91.52 82.748 0.085 162.069 32.99 220.582 91.499 58.513 58.505 91.43 137.835 91.524 220.578-0.090 82.752-32.998 162.090-91.516 220.603-58.513 58.513-137.839 91.425-220.591 91.516-82.743-0.102-162.076-33.025-220.58-91.537s-91.404-137.839-91.495-220.582v0zM508.621 442.091l-51.593-116.309-45.665 196.813-45.643-196.813-42.997 96.742h-66.648v29.257h85.69l15.2-34.266 44.876 193.489h19.021l44.865-193.489 50.586 113.941 46.652-185.719 42.547 219.751 18.893 0.861 50.462-172.953h93.090v-29.257h-115.038l-34.035 116.689-43.942-226.786-19.021-0.474-47.3 188.523z" />
<glyph unicode="&#xe953;" glyph-name="Minor" d="M612.036 147.964l-100.109 100.070-100.070-99.985c-13.111-13.137-28.693-23.556-45.84-30.652-17.148-7.1-35.533-10.731-54.092-10.709-18.566-0.026-36.952 3.627-54.102 10.739-17.149 7.117-32.723 17.545-45.819 30.703-13.112 13.116-23.488 28.702-30.536 45.854s-10.621 35.524-10.518 54.071c-0.099 18.539 3.47 36.928 10.518 54.080 7.048 17.148 17.428 32.734 30.536 45.85l99.994 100.028-99.994 100.067c-26.487 26.526-41.359 62.488-41.359 99.974s14.872 73.437 41.359 99.963c26.526 26.487 62.488 41.359 99.974 41.359s73.437-14.872 99.963-41.359l99.986-100.079 99.981 99.921c26.543 26.461 62.49 41.327 99.964 41.327 37.478 0 73.434-14.866 99.977-41.327 13.094-13.12 23.462-28.7 30.502-45.851s10.611-35.531 10.509-54.070c0.094-18.535-3.477-36.903-10.517-54.049s-17.404-32.731-30.494-45.851l-99.998-99.982 99.998-100.028c26.47-26.534 41.335-62.494 41.335-99.972 0-37.483-14.865-73.429-41.335-99.964-13.116-13.133-28.693-23.543-45.841-30.643-17.148-7.095-35.533-10.739-54.093-10.718-18.543-0.030-36.898 3.601-54.037 10.675-17.139 7.078-32.721 17.459-45.841 30.558v0zM229.251 330.803c-10.851-10.867-19.44-23.774-25.267-37.982-5.827-14.204-8.778-29.431-8.681-44.787-0.083-15.36 2.876-30.575 8.702-44.783s14.405-27.119 25.245-37.999c21.96-21.935 51.731-34.261 82.769-34.261s60.798 12.326 82.758 34.261l100.014 100.109-165.536 165.538-100.005-100.096zM229.251 730.665c-10.882-10.851-19.505-23.749-25.361-37.957s-8.829-29.445-8.754-44.812c-0.072-15.37 2.898-30.601 8.754-44.812s14.481-27.121 25.361-37.978l400.031-400.012c10.854-10.876 23.761-19.49 37.969-25.348 14.204-5.862 29.431-8.849 44.8-8.785 15.373-0.077 30.601 2.901 44.813 8.764 14.212 5.858 27.127 14.481 37.978 25.37 21.867 21.995 34.133 51.755 34.116 82.769 0.068 15.369-2.918 30.601-8.777 44.813s-14.464 27.119-25.34 37.978l-400.042 400.011c-10.856 10.877-23.751 19.491-37.957 25.35s-29.434 8.847-44.801 8.786c-15.381 0.097-30.627-2.856-44.854-8.702s-27.151-14.467-38.020-25.35l0.084-0.084zM629.282 730.665l-100.006-100.026 165.53-165.538 99.994 99.921c10.859 10.862 19.452 23.771 25.289 37.978 5.833 14.207 8.781 29.432 8.691 44.791 0.085 15.361-2.867 30.581-8.704 44.791-5.833 14.21-14.421 27.129-25.276 37.999-10.842 10.875-23.735 19.498-37.926 25.372-14.187 5.873-29.402 8.878-44.757 8.849-15.39 0.059-30.635-2.92-44.864-8.775s-27.162-14.469-38.054-25.34l0.085-0.021zM546.146 270.306l-211.747 211.695c-1.131 1.126-2.033 2.47-2.645 3.947s-0.924 3.051-0.924 4.651c0 1.596 0.311 3.174 0.924 4.651s1.514 2.816 2.645 3.947l126.281 126.342c1.122 1.136 2.458 2.040 3.934 2.656s3.063 0.934 4.663 0.934c1.596 0 3.183-0.319 4.659-0.934s2.812-1.519 3.934-2.656l211.866-211.683c2.278-2.283 3.558-5.385 3.558-8.606 0-3.226-1.28-6.319-3.558-8.597l-126.345-126.387c-1.126-1.131-2.47-2.027-3.947-2.645-1.476-0.614-3.051-0.939-4.651-0.943-1.626-0.009-3.243 0.307-4.745 0.934-1.498 0.627-2.854 1.553-3.989 2.718l0.085-0.021zM360.128 490.62l194.573-194.53 109.21 109.21-194.53 194.531-109.252-109.21z" />
</font>
</defs>
</svg>
